<?xml version="1.0" encoding="UTF-8" standalone="no"?>
<!-- Created with Inkscape (http://www.inkscape.org/) -->

<svg
   xmlns:dc="http://purl.org/dc/elements/1.1/"
   xmlns:cc="http://creativecommons.org/ns#"
   xmlns:rdf="http://www.w3.org/1999/02/22-rdf-syntax-ns#"
   xmlns:svg="http://www.w3.org/2000/svg"
   xmlns="http://www.w3.org/2000/svg"
   xmlns:sodipodi="http://sodipodi.sourceforge.net/DTD/sodipodi-0.dtd"
   xmlns:inkscape="http://www.inkscape.org/namespaces/inkscape"
   width="572.70233"
   height="723.73096"
   id="svg2"
   sodipodi:version="0.32"
   inkscape:version="0.92.3 (2405546, 2018-03-11)"
   version="1.0"
   sodipodi:docname="ClapperboardColor (1).svg"
   inkscape:output_extension="org.inkscape.output.svg.inkscape"
   sodipodi:modified="true">
  <defs
     id="defs4" />
  <sodipodi:namedview
     id="base"
     pagecolor="#ffffff"
     bordercolor="#666666"
     borderopacity="1.0"
     gridtolerance="10000"
     guidetolerance="10"
     objecttolerance="10"
     inkscape:pageopacity="0.0"
     inkscape:pageshadow="2"
     inkscape:zoom="0.73668053"
     inkscape:cx="292.17509"
     inkscape:cy="278.7643"
     inkscape:document-units="px"
     inkscape:current-layer="layer1"
     inkscape:window-width="1920"
     inkscape:window-height="1005"
     inkscape:window-x="-9"
     inkscape:window-y="-9"
     showgrid="false"
     inkscape:snap-bbox="true"
     inkscape:bbox-nodes="true"
     inkscape:bbox-paths="true"
     inkscape:snap-bbox-edge-midpoints="true"
     inkscape:snap-bbox-midpoints="true"
     inkscape:object-paths="true"
     inkscape:snap-intersection-paths="true"
     inkscape:snap-object-midpoints="true"
     inkscape:snap-center="true"
     inkscape:snap-smooth-nodes="true"
     inkscape:window-maximized="1"
     inkscape:lockguides="true"
     fit-margin-top="0"
     fit-margin-left="0"
     fit-margin-right="0"
     fit-margin-bottom="0" />
  <metadata
     id="metadata7">
    <rdf:RDF>
      <cc:Work
         rdf:about="">
        <dc:format>image/svg+xml</dc:format>
        <dc:type
           rdf:resource="http://purl.org/dc/dcmitype/StillImage" />
        <dc:title />
      </cc:Work>
    </rdf:RDF>
  </metadata>
  <g
     inkscape:label="Layer 1"
     inkscape:groupmode="layer"
     id="layer1"
     transform="translate(-564.62173,-595.45237)">
    <rect
       style="opacity:1;fill:#e6e6e6;fill-opacity:1;stroke:#000000;stroke-width:0.99162561;stroke-miterlimit:4;stroke-dasharray:none;stroke-opacity:1"
       id="rect3308"
       width="560.61627"
       height="479.89447"
       x="576.21191"
       y="838.79303"
       rx="43.483608"
       ry="43.483608" />
    <g
       aria-label="DAY NIGHT INT EXT MOS FILTER                    SYNC"
       style="font-style:normal;font-variant:normal;font-weight:bold;font-stretch:normal;font-size:11.27284622px;line-height:0%;font-family:Arial;-inkscape-font-specification:'Arial Bold';fill:#000000;fill-opacity:1;stroke:none;stroke-width:0.93940383px;stroke-linecap:butt;stroke-linejoin:miter;stroke-opacity:1"
       id="text3286">
      <path
         d="m 856.52006,1219.8754 h 5.45936 q 1.8467,0 2.81546,0.2826 1.30177,0.3834 2.23017,1.3623 0.92839,0.9788 1.41277,2.4017 0.48438,1.4128 0.48438,3.4916 0,1.8265 -0.4541,3.1485 -0.55502,1.6146 -1.58433,2.6136 -0.77703,0.7568 -2.09898,1.1807 -0.98894,0.3128 -2.64391,0.3128 h -5.62082 z m 2.98701,2.5026 v 9.7987 h 2.23016 q 1.25132,0 1.80634,-0.1413 0.72657,-0.1817 1.20086,-0.6156 0.48438,-0.4339 0.78711,-1.4229 0.30274,-0.999 0.30274,-2.7145 0,-1.7155 -0.30274,-2.6338 -0.30273,-0.9183 -0.84766,-1.433 -0.54493,-0.5146 -1.3825,-0.6963 -0.62566,-0.1413 -2.45218,-0.1413 z"
         style="font-style:normal;font-variant:normal;font-weight:bold;font-stretch:normal;font-size:20.66688347px;line-height:1.25;font-family:Arial;-inkscape-font-specification:'Arial Bold';stroke-width:0.93940383px"
         id="path5143"
         inkscape:connector-curvature="0" />
      <path
         d="m 884.80583,1234.6692 h -3.24938 l -1.29168,-3.3604 h -5.91347 l -1.22104,3.3604 h -3.16866 l 5.76211,-14.7938 h 3.15856 z m -5.49973,-5.8529 -2.03843,-5.4897 -1.99807,5.4897 z"
         style="font-style:normal;font-variant:normal;font-weight:bold;font-stretch:normal;font-size:20.66688347px;line-height:1.25;font-family:Arial;-inkscape-font-specification:'Arial Bold';stroke-width:0.93940383px"
         id="path5145"
         inkscape:connector-curvature="0" />
      <path
         d="m 888.38823,1234.6692 v -6.2263 l -5.419,-8.5675 h 3.50166 l 3.48148,5.8529 3.41085,-5.8529 h 3.44111 l -5.43918,8.5877 v 6.2061 z"
         style="font-style:normal;font-variant:normal;font-weight:bold;font-stretch:normal;font-size:20.66688347px;line-height:1.25;font-family:Arial;-inkscape-font-specification:'Arial Bold';stroke-width:0.93940383px"
         id="path5147"
         inkscape:connector-curvature="0" />
      <path
         d="m 903.70675,1234.6692 v -14.7938 h 2.90628 l 6.05475,9.8793 v -9.8793 h 2.77509 v 14.7938 h -2.9971 l -5.96393,-9.6472 v 9.6472 z"
         style="font-style:normal;font-variant:normal;font-weight:bold;font-stretch:normal;font-size:20.66688347px;line-height:1.25;font-family:Arial;-inkscape-font-specification:'Arial Bold';stroke-width:0.93940383px"
         id="path5149"
         inkscape:connector-curvature="0" />
      <path
         d="m 918.52071,1234.6692 v -14.7938 h 2.98701 v 14.7938 z"
         style="font-style:normal;font-variant:normal;font-weight:bold;font-stretch:normal;font-size:20.66688347px;line-height:1.25;font-family:Arial;-inkscape-font-specification:'Arial Bold';stroke-width:0.93940383px"
         id="path5151"
         inkscape:connector-curvature="0" />
      <path
         d="m 931.22559,1229.23 v -2.4925 h 6.43822 v 5.8933 q -0.93849,0.9082 -2.72464,1.6045 -1.77606,0.6862 -3.60258,0.6862 -2.32098,0 -4.04659,-0.9688 -1.7256,-0.9788 -2.59345,-2.7852 -0.86785,-1.8164 -0.86785,-3.9457 0,-2.3109 0.96876,-4.1071 0.96876,-1.7962 2.83564,-2.7549 1.42287,-0.7367 3.54203,-0.7367 2.75492,0 4.29888,1.1605 1.55405,1.1504 1.99806,3.1889 l -2.96682,0.555 q -0.31283,-1.0899 -1.18068,-1.7155 -0.85776,-0.6358 -2.14944,-0.6358 -1.9577,0 -3.11819,1.2412 -1.15041,1.2413 -1.15041,3.6834 0,2.6338 1.17059,3.9557 1.17058,1.3119 3.06774,1.3119 0.93849,0 1.87697,-0.3633 0.94858,-0.3734 1.62469,-0.8981 v -1.877 z"
         style="font-style:normal;font-variant:normal;font-weight:bold;font-stretch:normal;font-size:20.66688347px;line-height:1.25;font-family:Arial;-inkscape-font-specification:'Arial Bold';stroke-width:0.93940383px"
         id="path5153"
         inkscape:connector-curvature="0" />
      <path
         d="m 940.41872,1234.6692 v -14.7938 h 2.98702 v 5.8227 h 5.85292 v -5.8227 h 2.98701 v 14.7938 h -2.98701 v -6.4685 h -5.85292 v 6.4685 z"
         style="font-style:normal;font-variant:normal;font-weight:bold;font-stretch:normal;font-size:20.66688347px;line-height:1.25;font-family:Arial;-inkscape-font-specification:'Arial Bold';stroke-width:0.93940383px"
         id="path5155"
         inkscape:connector-curvature="0" />
      <path
         d="m 958.6738,1234.6692 v -12.2912 h -4.3897 v -2.5026 h 11.75631 v 2.5026 h -4.3796 v 12.2912 z"
         style="font-style:normal;font-variant:normal;font-weight:bold;font-stretch:normal;font-size:20.66688347px;line-height:1.25;font-family:Arial;-inkscape-font-specification:'Arial Bold';stroke-width:0.93940383px"
         id="path5157"
         inkscape:connector-curvature="0" />
      <path
         d="m 973.61894,1234.6692 v -14.7938 h 2.98701 v 14.7938 z"
         style="font-style:normal;font-variant:normal;font-weight:bold;font-stretch:normal;font-size:20.66688347px;line-height:1.25;font-family:Arial;-inkscape-font-specification:'Arial Bold';stroke-width:0.93940383px"
         id="path5159"
         inkscape:connector-curvature="0" />
      <path
         d="m 979.47187,1234.6692 v -14.7938 h 2.90628 l 6.05475,9.8793 v -9.8793 h 2.77509 v 14.7938 h -2.9971 l -5.96393,-9.6472 v 9.6472 z"
         style="font-style:normal;font-variant:normal;font-weight:bold;font-stretch:normal;font-size:20.66688347px;line-height:1.25;font-family:Arial;-inkscape-font-specification:'Arial Bold';stroke-width:0.93940383px"
         id="path5161"
         inkscape:connector-curvature="0" />
      <path
         d="m 997.70676,1234.6692 v -12.2912 h -4.3897 v -2.5026 h 11.75634 v 2.5026 h -4.3796 v 12.2912 z"
         style="font-style:normal;font-variant:normal;font-weight:bold;font-stretch:normal;font-size:20.66688347px;line-height:1.25;font-family:Arial;-inkscape-font-specification:'Arial Bold';stroke-width:0.93940383px"
         id="path5163"
         inkscape:connector-curvature="0" />
      <path
         d="m 1012.7427,1234.6692 v -14.7938 h 10.9692 v 2.5026 h -7.9822 v 3.2797 h 7.4272 v 2.4925 h -7.4272 v 4.0265 h 8.2648 v 2.4925 z"
         style="font-style:normal;font-variant:normal;font-weight:bold;font-stretch:normal;font-size:20.66688347px;line-height:1.25;font-family:Arial;-inkscape-font-specification:'Arial Bold';stroke-width:0.93940383px"
         id="path5165"
         inkscape:connector-curvature="0" />
      <path
         d="m 1025.044,1234.6692 5.0557,-7.7198 -4.5815,-7.074 h 3.4916 l 2.9669,4.753 2.9062,-4.753 h 3.4613 l -4.6016,7.185 5.0557,7.6088 h -3.6025 l -3.2797,-5.1163 -3.2897,5.1163 z"
         style="font-style:normal;font-variant:normal;font-weight:bold;font-stretch:normal;font-size:20.66688347px;line-height:1.25;font-family:Arial;-inkscape-font-specification:'Arial Bold';stroke-width:0.93940383px"
         id="path5167"
         inkscape:connector-curvature="0" />
      <path
         d="m 1043.6825,1234.6692 v -12.2912 h -4.3897 v -2.5026 h 11.7563 v 2.5026 h -4.3796 v 12.2912 z"
         style="font-style:normal;font-variant:normal;font-weight:bold;font-stretch:normal;font-size:20.66688347px;line-height:1.25;font-family:Arial;-inkscape-font-specification:'Arial Bold';stroke-width:0.93940383px"
         id="path5169"
         inkscape:connector-curvature="0" />
      <path
         d="m 1058.6781,1234.6692 v -14.7938 h 4.4704 l 2.6843,10.0913 2.654,-10.0913 h 4.4805 v 14.7938 h -2.7751 v -11.6453 l -2.9365,11.6453 h -2.876 l -2.9265,-11.6453 v 11.6453 z"
         style="font-style:normal;font-variant:normal;font-weight:bold;font-stretch:normal;font-size:20.66688347px;line-height:1.25;font-family:Arial;-inkscape-font-specification:'Arial Bold';stroke-width:0.93940383px"
         id="path5171"
         inkscape:connector-curvature="0" />
      <path
         d="m 1075.3489,1227.3631 q 0,-2.2604 0.6761,-3.7943 0.5045,-1.1302 1.3724,-2.0283 0.8779,-0.8982 1.9173,-1.3321 1.3825,-0.5853 3.1888,-0.5853 3.2696,0 5.2273,2.0284 1.9678,2.0283 1.9678,5.641 0,3.5824 -1.9476,5.6107 -1.9476,2.0183 -5.2071,2.0183 -3.2998,0 -5.2474,-2.0082 -1.9476,-2.0182 -1.9476,-5.5502 z m 3.0778,-0.1009 q 0,2.5127 1.1605,3.8145 1.1605,1.2917 2.9466,1.2917 1.7862,0 2.9265,-1.2816 1.1504,-1.2917 1.1504,-3.865 0,-2.5429 -1.1201,-3.7943 -1.1101,-1.2513 -2.9568,-1.2513 -1.8467,0 -2.9769,1.2715 -1.1302,1.2614 -1.1302,3.8145 z"
         style="font-style:normal;font-variant:normal;font-weight:bold;font-stretch:normal;font-size:20.66688347px;line-height:1.25;font-family:Arial;-inkscape-font-specification:'Arial Bold';stroke-width:0.93940383px"
         id="path5173"
         inkscape:connector-curvature="0" />
      <path
         d="m 1091.2628,1229.8557 2.9062,-0.2826 q 0.2624,1.4632 1.0596,2.1494 0.8073,0.6862 2.1696,0.6862 1.4431,0 2.1697,-0.6054 0.7366,-0.6156 0.7366,-1.433 0,-0.5247 -0.3128,-0.888 -0.3027,-0.3734 -1.0697,-0.6459 -0.5247,-0.1816 -2.3916,-0.6458 -2.4017,-0.5954 -3.3705,-1.4632 -1.3623,-1.2211 -1.3623,-2.9769 0,-1.1303 0.6357,-2.1091 0.6459,-0.989 1.8467,-1.5036 1.211,-0.5147 2.9164,-0.5147 2.7852,0 4.1879,1.2211 1.4128,1.221 1.4834,3.2594 l -2.987,0.1312 q -0.1917,-1.1403 -0.8275,-1.6347 -0.6257,-0.5046 -1.8871,-0.5046 -1.3017,0 -2.0384,0.5348 -0.4743,0.3431 -0.4743,0.9183 0,0.5248 0.444,0.8982 0.5651,0.4742 2.7449,0.9889 2.1797,0.5146 3.2191,1.0697 1.0495,0.5449 1.6347,1.5036 0.5954,0.9485 0.5954,2.3512 0,1.2715 -0.7064,2.3816 -0.7063,1.11 -1.998,1.6549 -1.2917,0.5349 -3.2191,0.5349 -2.8054,0 -4.309,-1.2917 -1.5036,-1.3018 -1.7962,-3.7842 z"
         style="font-style:normal;font-variant:normal;font-weight:bold;font-stretch:normal;font-size:20.66688347px;line-height:1.25;font-family:Arial;-inkscape-font-specification:'Arial Bold';stroke-width:0.93940383px"
         id="path5175"
         inkscape:connector-curvature="0" />
      <path
         d="m 856.55033,1260.5028 v -14.7938 h 10.14171 v 2.5026 h -7.1547 v 3.5017 h 6.17585 v 2.5026 h -6.17585 v 6.2869 z"
         style="font-style:normal;font-variant:normal;font-weight:bold;font-stretch:normal;font-size:20.66688347px;line-height:1.25;font-family:Arial;-inkscape-font-specification:'Arial Bold';stroke-width:0.93940383px"
         id="path5177"
         inkscape:connector-curvature="0" />
      <path
         d="m 869.07357,1260.5028 v -14.7938 h 2.98701 v 14.7938 z"
         style="font-style:normal;font-variant:normal;font-weight:bold;font-stretch:normal;font-size:20.66688347px;line-height:1.25;font-family:Arial;-inkscape-font-specification:'Arial Bold';stroke-width:0.93940383px"
         id="path5179"
         inkscape:connector-curvature="0" />
      <path
         d="m 874.97695,1260.5028 v -14.6727 h 2.98701 v 12.1802 h 7.42717 v 2.4925 z"
         style="font-style:normal;font-variant:normal;font-weight:bold;font-stretch:normal;font-size:20.66688347px;line-height:1.25;font-family:Arial;-inkscape-font-specification:'Arial Bold';stroke-width:0.93940383px"
         id="path5181"
         inkscape:connector-curvature="0" />
      <path
         d="m 889.32672,1260.5028 v -12.2912 h -4.3897 v -2.5026 h 11.75631 v 2.5026 h -4.3796 v 12.2912 z"
         style="font-style:normal;font-variant:normal;font-weight:bold;font-stretch:normal;font-size:20.66688347px;line-height:1.25;font-family:Arial;-inkscape-font-specification:'Arial Bold';stroke-width:0.93940383px"
         id="path5183"
         inkscape:connector-curvature="0" />
      <path
         d="m 898.63085,1260.5028 v -14.7938 h 10.96919 v 2.5026 h -7.98218 v 3.2797 h 7.42716 v 2.4925 h -7.42716 v 4.0265 h 8.26473 v 2.4925 z"
         style="font-style:normal;font-variant:normal;font-weight:bold;font-stretch:normal;font-size:20.66688347px;line-height:1.25;font-family:Arial;-inkscape-font-specification:'Arial Bold';stroke-width:0.93940383px"
         id="path5185"
         inkscape:connector-curvature="0" />
      <path
         d="m 912.44577,1260.5028 v -14.7938 h 6.28685 q 2.37144,0 3.44112,0.4037 1.07976,0.3935 1.7256,1.4127 0.64584,1.0193 0.64584,2.3311 0,1.6651 -0.97885,2.7549 -0.97885,1.0798 -2.92646,1.3624 0.96876,0.5651 1.59442,1.2412 0.63574,0.6761 1.70542,2.4017 l 1.80633,2.8861 h -3.5723 l -2.15953,-3.2191 q -1.1504,-1.7256 -1.57424,-2.1696 -0.42383,-0.4541 -0.89812,-0.6156 -0.47429,-0.1716 -1.50359,-0.1716 h -0.60548 v 6.1759 z m 2.98701,-8.5372 h 2.20999 q 2.14943,0 2.68427,-0.1816 0.53483,-0.1817 0.83757,-0.6257 0.30274,-0.444 0.30274,-1.11 0,-0.7468 -0.40365,-1.2009 -0.39356,-0.4642 -1.12013,-0.5853 -0.36328,-0.05 -2.17971,-0.05 h -2.33108 z"
         style="font-style:normal;font-variant:normal;font-weight:bold;font-stretch:normal;font-size:20.66688347px;line-height:1.25;font-family:Arial;-inkscape-font-specification:'Arial Bold';stroke-width:0.93940383px"
         id="path5187"
         inkscape:connector-curvature="0" />
      <path
         d="m 1041.2505,1255.6893 2.9063,-0.2826 q 0.2624,1.4632 1.0596,2.1494 0.8073,0.6863 2.1696,0.6863 1.443,0 2.1696,-0.6055 0.7367,-0.6156 0.7367,-1.433 0,-0.5247 -0.3129,-0.888 -0.3027,-0.3734 -1.0696,-0.6458 -0.5248,-0.1817 -2.3917,-0.6459 -2.4017,-0.5954 -3.3704,-1.4632 -1.3624,-1.2211 -1.3624,-2.9769 0,-1.1303 0.6358,-2.1091 0.6458,-0.989 1.8467,-1.5036 1.2109,-0.5147 2.9164,-0.5147 2.7851,0 4.1878,1.2211 1.4128,1.221 1.4834,3.2595 l -2.987,0.1311 q -0.1917,-1.1403 -0.8274,-1.6347 -0.6257,-0.5046 -1.8871,-0.5046 -1.3018,0 -2.0384,0.5348 -0.4743,0.3431 -0.4743,0.9183 0,0.5248 0.444,0.8982 0.5651,0.4742 2.7448,0.9889 2.1797,0.5147 3.2191,1.0697 1.0495,0.5449 1.6348,1.5036 0.5954,0.9485 0.5954,2.3512 0,1.2715 -0.7064,2.3816 -0.7064,1.11 -1.9981,1.6549 -1.2917,0.5349 -3.2191,0.5349 -2.8054,0 -4.309,-1.2917 -1.5035,-1.3018 -1.7962,-3.7842 z"
         style="font-style:normal;font-variant:normal;font-weight:bold;font-stretch:normal;font-size:20.66688347px;line-height:1.25;font-family:Arial;-inkscape-font-specification:'Arial Bold';stroke-width:0.93940383px"
         id="path5189"
         inkscape:connector-curvature="0" />
      <path
         d="m 1059.6973,1260.5028 v -6.2263 l -5.419,-8.5675 h 3.5017 l 3.4815,5.8529 3.4108,-5.8529 h 3.4411 l -5.4392,8.5877 v 6.2061 z"
         style="font-style:normal;font-variant:normal;font-weight:bold;font-stretch:normal;font-size:20.66688347px;line-height:1.25;font-family:Arial;-inkscape-font-specification:'Arial Bold';stroke-width:0.93940383px"
         id="path5191"
         inkscape:connector-curvature="0" />
      <path
         d="m 1069.6473,1260.5028 v -14.7938 h 2.9063 l 6.0547,9.8794 v -9.8794 h 2.7751 v 14.7938 h -2.9971 l -5.9639,-9.6472 v 9.6472 z"
         style="font-style:normal;font-variant:normal;font-weight:bold;font-stretch:normal;font-size:20.66688347px;line-height:1.25;font-family:Arial;-inkscape-font-specification:'Arial Bold';stroke-width:0.93940383px"
         id="path5193"
         inkscape:connector-curvature="0" />
      <path
         d="m 1094.0177,1255.0636 2.8962,0.9183 q -0.6661,2.4219 -2.2201,3.6026 -1.544,1.1706 -3.9255,1.1706 -2.9467,0 -4.8438,-2.0082 -1.8972,-2.0182 -1.8972,-5.5098 0,-3.6934 1.9073,-5.7318 1.9072,-2.0486 5.0153,-2.0486 2.7146,0 4.4099,1.6045 1.0091,0.9486 1.5137,2.7247 l -2.9567,0.7064 q -0.2624,-1.1504 -1.1,-1.8165 -0.8275,-0.666 -2.0182,-0.666 -1.6449,0 -2.6742,1.1807 -1.0192,1.1807 -1.0192,3.8246 0,2.8054 1.0091,3.9961 1.0091,1.1908 2.6237,1.1908 1.1908,0 2.0485,-0.7569 0.8578,-0.7568 1.2312,-2.3815 z"
         style="font-style:normal;font-variant:normal;font-weight:bold;font-stretch:normal;font-size:20.66688347px;line-height:1.25;font-family:Arial;-inkscape-font-specification:'Arial Bold';stroke-width:0.93940383px"
         id="path5195"
         inkscape:connector-curvature="0" />
    </g>
    <g
       transform="translate(-208.28387,84.161337)"
       id="g4877">
      <rect
         transform="scale(1,-1)"
         y="-796.13593"
         x="784"
         height="56.580963"
         width="561.60791"
         id="rect3250"
         style="opacity:1;fill:#333333;fill-opacity:1;stroke:none;stroke-width:6.62187624;stroke-miterlimit:4;stroke-dasharray:none;stroke-opacity:1" />
      <path
         sodipodi:nodetypes="cc"
         inkscape:connector-curvature="0"
         id="path3240"
         d="M 1345.1938,740.01635 H 784.39869"
         style="fill:none;fill-rule:evenodd;stroke:#000000;stroke-width:0.92269826px;stroke-linecap:butt;stroke-linejoin:miter;stroke-opacity:1" />
      <path
         style="fill:#1f8c62;fill-opacity:1;fill-rule:evenodd;stroke:none;stroke-width:1.10512972px;stroke-linecap:butt;stroke-linejoin:miter;stroke-opacity:1"
         d="m 922.49559,795.37878 55.65108,-55.65118 52.12373,-0.17267 -56.34205,56.34187 h -51.43276 z"
         id="path4839"
         inkscape:connector-curvature="0"
         sodipodi:nodetypes="cccccc" />
      <path
         sodipodi:nodetypes="cccccc"
         inkscape:connector-curvature="0"
         id="path4843"
         d="m 974.07825,795.37878 55.65095,-55.65118 52.1237,-0.17267 -56.342,56.34187 h -51.43265 z"
         style="fill:#f0d06d;fill-opacity:1;fill-rule:evenodd;stroke:none;stroke-width:1.10512972px;stroke-linecap:butt;stroke-linejoin:miter;stroke-opacity:1" />
      <path
         sodipodi:nodetypes="cccccc"
         inkscape:connector-curvature="0"
         id="path4845"
         d="m 1026.0293,795.37878 55.6509,-55.65118 52.1237,-0.17267 -56.342,56.34187 h -51.4326 z"
         style="fill:#2288de;fill-opacity:1;fill-rule:evenodd;stroke:none;stroke-width:1.10512972px;stroke-linecap:butt;stroke-linejoin:miter;stroke-opacity:1" />
      <path
         sodipodi:nodetypes="cccccc"
         inkscape:connector-curvature="0"
         id="path4847"
         d="m 1077.9802,795.37878 55.651,-55.65118 52.1237,-0.17267 -56.342,56.34187 h -51.4327 z"
         style="fill:#c21f3c;fill-opacity:1;fill-rule:evenodd;stroke:none;stroke-width:1.10512972px;stroke-linecap:butt;stroke-linejoin:miter;stroke-opacity:1" />
      <path
         sodipodi:nodetypes="cccccc"
         inkscape:connector-curvature="0"
         id="path4849"
         d="m 1129.9312,795.37878 55.651,-55.65118 52.1237,-0.17267 -56.342,56.34187 h -51.4327 z"
         style="fill:#eae2f5;fill-opacity:1;fill-rule:evenodd;stroke:none;stroke-width:1.10512972px;stroke-linecap:butt;stroke-linejoin:miter;stroke-opacity:1" />
      <path
         sodipodi:nodetypes="cccccc"
         inkscape:connector-curvature="0"
         id="path4851"
         d="m 1181.8822,795.37878 55.651,-55.65118 52.1237,-0.17267 -56.342,56.34187 h -51.4327 z"
         style="fill:#9c9799;fill-opacity:1;fill-rule:evenodd;stroke:none;stroke-width:1.10512972px;stroke-linecap:butt;stroke-linejoin:miter;stroke-opacity:1" />
      <path
         sodipodi:nodetypes="cccccc"
         inkscape:connector-curvature="0"
         id="path4853"
         d="m 1233.8332,795.37878 55.651,-55.65118 52.1237,-0.17267 -56.342,56.34187 h -51.4327 z"
         style="fill:#544e50;fill-opacity:1;fill-rule:evenodd;stroke:none;stroke-width:1.10512972px;stroke-linecap:butt;stroke-linejoin:miter;stroke-opacity:1" />
    </g>
    <path
       style="fill:none;fill-rule:evenodd;stroke:#000000;stroke-width:5.6692915;stroke-linecap:butt;stroke-linejoin:miter;stroke-miterlimit:4;stroke-dasharray:none;stroke-opacity:1"
       d="M 612.86511,942.45646 H 1100.1749"
       id="path2239"
       inkscape:connector-curvature="0" />
    <path
       style="fill:none;fill-rule:evenodd;stroke:#000000;stroke-width:5.6692915;stroke-linecap:butt;stroke-linejoin:miter;stroke-miterlimit:4;stroke-dasharray:none;stroke-opacity:1"
       d="M 612.86522,1081.575 H 1100.1748"
       id="path3217"
       inkscape:connector-curvature="0" />
    <path
       style="fill:none;fill-rule:evenodd;stroke:#000000;stroke-width:5.91095114;stroke-linecap:butt;stroke-linejoin:miter;stroke-miterlimit:4;stroke-dasharray:none;stroke-opacity:1"
       d="M 612.86522,1190.216 H 1100.1748"
       id="path3219"
       inkscape:connector-curvature="0" />
    <g
       id="g4907"
       transform="matrix(3.7795276,0,0,3.7795276,1376.8382,731.38085)">
      <path
         inkscape:connector-curvature="0"
         id="path3225"
         d="m -113.02895,92.798086 v -36.951"
         style="fill:none;fill-rule:evenodd;stroke:#000000;stroke-width:1.5;stroke-linecap:butt;stroke-linejoin:miter;stroke-miterlimit:4;stroke-dasharray:none;stroke-opacity:1" />
      <path
         inkscape:connector-curvature="0"
         id="path3227"
         d="m -162.3061,92.798086 v -36.951"
         style="fill:none;fill-rule:evenodd;stroke:#000000;stroke-width:1.5;stroke-linecap:butt;stroke-linejoin:miter;stroke-miterlimit:4;stroke-dasharray:none;stroke-opacity:1" />
    </g>
    <g
       id="g4897"
       transform="matrix(0.95051308,-0.31068457,-0.31068457,-0.95051308,66.766626,1770.2496)">
      <rect
         style="opacity:1;fill:#333333;fill-opacity:1;stroke:none;stroke-width:6.62187624;stroke-miterlimit:4;stroke-dasharray:none;stroke-opacity:1"
         id="rect4879"
         width="561.60791"
         height="56.580963"
         x="784"
         y="-796.13593"
         transform="scale(1,-1)" />
      <path
         style="fill:none;fill-rule:evenodd;stroke:#000000;stroke-width:0.92269826px;stroke-linecap:butt;stroke-linejoin:miter;stroke-opacity:1"
         d="M 1345.1938,740.01635 H 784.39869"
         id="path4881"
         inkscape:connector-curvature="0"
         sodipodi:nodetypes="cc" />
      <path
         sodipodi:nodetypes="cccccc"
         inkscape:connector-curvature="0"
         id="path4883"
         d="m 922.49559,795.37878 55.65108,-55.65118 52.12373,-0.17267 -56.34205,56.34187 h -51.43276 z"
         style="fill:#1f8c62;fill-opacity:1;fill-rule:evenodd;stroke:none;stroke-width:1.10512972px;stroke-linecap:butt;stroke-linejoin:miter;stroke-opacity:1" />
      <path
         style="fill:#f0d06d;fill-opacity:1;fill-rule:evenodd;stroke:none;stroke-width:1.10512972px;stroke-linecap:butt;stroke-linejoin:miter;stroke-opacity:1"
         d="m 974.07825,795.37878 55.65095,-55.65118 52.1237,-0.17267 -56.342,56.34187 h -51.43265 z"
         id="path4885"
         inkscape:connector-curvature="0"
         sodipodi:nodetypes="cccccc" />
      <path
         style="fill:#2288de;fill-opacity:1;fill-rule:evenodd;stroke:none;stroke-width:1.10512972px;stroke-linecap:butt;stroke-linejoin:miter;stroke-opacity:1"
         d="m 1026.0293,795.37878 55.6509,-55.65118 52.1237,-0.17267 -56.342,56.34187 h -51.4326 z"
         id="path4887"
         inkscape:connector-curvature="0"
         sodipodi:nodetypes="cccccc" />
      <path
         style="fill:#c21f3c;fill-opacity:1;fill-rule:evenodd;stroke:none;stroke-width:1.10512972px;stroke-linecap:butt;stroke-linejoin:miter;stroke-opacity:1"
         d="m 1077.9802,795.37878 55.651,-55.65118 52.1237,-0.17267 -56.342,56.34187 h -51.4327 z"
         id="path4889"
         inkscape:connector-curvature="0"
         sodipodi:nodetypes="cccccc" />
      <path
         style="fill:#eae2f5;fill-opacity:1;fill-rule:evenodd;stroke:none;stroke-width:1.10512972px;stroke-linecap:butt;stroke-linejoin:miter;stroke-opacity:1"
         d="m 1129.9312,795.37878 55.651,-55.65118 52.1237,-0.17267 -56.342,56.34187 h -51.4327 z"
         id="path4891"
         inkscape:connector-curvature="0"
         sodipodi:nodetypes="cccccc" />
      <path
         style="fill:#9c9799;fill-opacity:1;fill-rule:evenodd;stroke:none;stroke-width:1.10512972px;stroke-linecap:butt;stroke-linejoin:miter;stroke-opacity:1"
         d="m 1181.8822,795.37878 55.651,-55.65118 52.1237,-0.17267 -56.342,56.34187 h -51.4327 z"
         id="path4893"
         inkscape:connector-curvature="0"
         sodipodi:nodetypes="cccccc" />
      <path
         style="fill:#544e50;fill-opacity:1;fill-rule:evenodd;stroke:none;stroke-width:1.10512972px;stroke-linecap:butt;stroke-linejoin:miter;stroke-opacity:1"
         d="m 1233.8332,795.37878 55.651,-55.65118 52.1237,-0.17267 -56.342,56.34187 h -51.4327 z"
         id="path4895"
         inkscape:connector-curvature="0"
         sodipodi:nodetypes="cccccc" />
    </g>
    <g
       id="g4821"
       transform="matrix(0.99999999,0,0,-0.99999999,-208.28387,1564.6507)">
      <path
         inkscape:connector-curvature="0"
         id="path3231"
         d="m 892,699.09107 c -0.055,10.04586 0.11152,20.10017 -0.086,30.14062 -0.46488,3.29459 -1.40703,6.72086 -4.17961,8.79158 -15.59046,15.53164 -31.0635,31.18512 -46.73275,46.63493 -3.59237,2.99598 -7.44566,7.29467 -12.5755,6.62335 -10.26392,-0.0477 -20.53545,0.1083 -30.7932,-0.10486 -5.07903,-0.16751 -8.0213,-5.44457 -7.15681,-10.10232 -0.0434,-26.5569 0.0868,-53.12408 -0.0651,-79.67455 -0.83983,-6.17378 4.4883,-11.47488 10.45344,-11.89808 9.37788,-0.66689 18.81584,-0.18431 28.22119,-0.31547 18.16926,0.0313 36.36335,-0.0618 54.51585,0.0452 5.09704,0.41026 8.75328,4.73871 8.39844,9.85956 z"
         style="fill:#333333;fill-opacity:1;fill-rule:evenodd;stroke:#000000;stroke-width:1.06666672px;stroke-linecap:butt;stroke-linejoin:miter;stroke-opacity:1" />
      <circle
         r="8"
         cy="707.66248"
         cx="809.06665"
         id="path3234"
         style="opacity:1;fill:#bbbbbb;fill-opacity:1;stroke:none;stroke-width:9.83122253;stroke-miterlimit:4;stroke-dasharray:none;stroke-opacity:1" />
      <circle
         r="8"
         cy="773.79584"
         cx="809.06665"
         id="path3236"
         style="opacity:1;fill:#bbbbbb;fill-opacity:1;stroke:none;stroke-width:9.83122253;stroke-miterlimit:4;stroke-dasharray:none;stroke-opacity:1" />
      <circle
         r="8"
         cy="707.66248"
         cx="874.13336"
         id="path3238"
         style="opacity:1;fill:#bbbbbb;fill-opacity:1;stroke:none;stroke-width:9.83122253;stroke-miterlimit:4;stroke-dasharray:none;stroke-opacity:1" />
    </g>
    <g
       aria-label="PROD."
       style="font-style:normal;font-variant:normal;font-weight:bold;font-stretch:normal;font-size:12.80000019px;line-height:0%;font-family:Arial;-inkscape-font-specification:'Arial Bold';fill:#000000;fill-opacity:1;stroke:none;stroke-width:1.06666672px;stroke-linecap:butt;stroke-linejoin:miter;stroke-opacity:1"
       id="text3252">
      <path
         d="m 606.96565,917.13416 v -16.79792 h 5.44271 q 3.09375,0 4.03334,0.25208 1.44375,0.37813 2.4177,1.65 0.97396,1.26042 0.97396,3.26563 0,1.54687 -0.56146,2.60104 -0.56145,1.05417 -1.43229,1.66146 -0.85937,0.59583 -1.75312,0.79062 -1.21459,0.24063 -3.51771,0.24063 h -2.21146 v 6.33646 z m 3.39167,-13.95626 v 4.76667 h 1.85625 q 2.00521,0 2.68125,-0.26354 0.67604,-0.26354 1.05417,-0.825 0.38958,-0.56146 0.38958,-1.30625 0,-0.91667 -0.53854,-1.5125 -0.53854,-0.59583 -1.36354,-0.74479 -0.60729,-0.11459 -2.44063,-0.11459 z"
         style="font-style:normal;font-variant:normal;font-weight:bold;font-stretch:normal;font-size:23.46666718px;line-height:1.25;font-family:Arial;-inkscape-font-specification:'Arial Bold';stroke-width:1.06666672px"
         id="path5327"
         inkscape:connector-curvature="0" />
      <path
         d="m 622.65211,917.13416 v -16.79792 h 7.13854 q 2.69271,0 3.9073,0.45833 1.22604,0.44688 1.95937,1.60417 0.73333,1.15729 0.73333,2.64687 0,1.89063 -1.11145,3.12813 -1.11146,1.22604 -3.32292,1.54687 1.1,0.64167 1.81042,1.40938 0.72187,0.76771 1.93645,2.72708 l 2.05105,3.27709 h -4.05625 l -2.45209,-3.65521 q -1.30625,-1.95938 -1.7875,-2.46354 -0.48125,-0.51563 -1.01979,-0.69896 -0.53854,-0.19479 -1.70729,-0.19479 h -0.6875 v 7.0125 z m 3.39167,-9.69375 h 2.50937 q 2.44063,0 3.04792,-0.20625 0.60729,-0.20625 0.95104,-0.71042 0.34375,-0.50417 0.34375,-1.26042 0,-0.84792 -0.45833,-1.36354 -0.44688,-0.52708 -1.27188,-0.66458 -0.4125,-0.0573 -2.475,-0.0573 h -2.64687 z"
         style="font-style:normal;font-variant:normal;font-weight:bold;font-stretch:normal;font-size:23.46666718px;line-height:1.25;font-family:Arial;-inkscape-font-specification:'Arial Bold';stroke-width:1.06666672px"
         id="path5329"
         inkscape:connector-curvature="0" />
      <path
         d="m 638.91149,908.83832 q 0,-2.56666 0.76771,-4.30833 0.57291,-1.28334 1.55833,-2.30313 0.99688,-1.01979 2.17708,-1.5125 1.5698,-0.66458 3.62084,-0.66458 3.7125,0 5.93541,2.30312 2.23438,2.30313 2.23438,6.40521 0,4.06771 -2.21146,6.37084 -2.21146,2.29166 -5.9125,2.29166 -3.74687,0 -5.95833,-2.2802 -2.21146,-2.29167 -2.21146,-6.30209 z m 3.49479,-0.11458 q 0,2.85312 1.31771,4.33125 1.31771,1.46667 3.34583,1.46667 2.02813,0 3.32292,-1.45521 1.30625,-1.46667 1.30625,-4.38854 0,-2.8875 -1.27188,-4.30834 -1.26041,-1.42083 -3.35729,-1.42083 -2.09687,0 -3.38021,1.44375 -1.28333,1.43229 -1.28333,4.33125 z"
         style="font-style:normal;font-variant:normal;font-weight:bold;font-stretch:normal;font-size:23.46666718px;line-height:1.25;font-family:Arial;-inkscape-font-specification:'Arial Bold';stroke-width:1.06666672px"
         id="path5331"
         inkscape:connector-curvature="0" />
      <path
         d="m 657.8292,900.33624 h 6.19895 q 2.09688,0 3.19688,0.32083 1.47812,0.43542 2.53229,1.54688 1.05417,1.11145 1.60417,2.72708 0.55,1.60417 0.55,3.96458 0,2.07396 -0.51563,3.575 -0.63021,1.83334 -1.79896,2.96771 -0.88229,0.85938 -2.38333,1.34063 -1.12292,0.35521 -3.00208,0.35521 h -6.38229 z m 3.39166,2.84166 v 11.12605 h 2.53229 q 1.42084,0 2.05105,-0.16042 0.825,-0.20625 1.36354,-0.69896 0.55,-0.49271 0.89375,-1.61562 0.34375,-1.13438 0.34375,-3.08229 0,-1.94792 -0.34375,-2.99063 -0.34375,-1.04271 -0.9625,-1.62708 -0.61875,-0.58438 -1.56979,-0.79063 -0.71042,-0.16042 -2.78438,-0.16042 z"
         style="font-style:normal;font-variant:normal;font-weight:bold;font-stretch:normal;font-size:23.46666718px;line-height:1.25;font-family:Arial;-inkscape-font-specification:'Arial Bold';stroke-width:1.06666672px"
         id="path5333"
         inkscape:connector-curvature="0" />
      <path
         d="m 674.77607,917.13416 v -3.2198 h 3.21979 v 3.2198 z"
         style="font-style:normal;font-variant:normal;font-weight:bold;font-stretch:normal;font-size:23.46666718px;line-height:1.25;font-family:Arial;-inkscape-font-specification:'Arial Bold';stroke-width:1.06666672px"
         id="path5335"
         inkscape:connector-curvature="0" />
    </g>
    <g
       aria-label="SCENE"
       style="font-style:normal;font-variant:normal;font-weight:bold;font-stretch:normal;font-size:12.80000019px;line-height:0%;font-family:Arial;-inkscape-font-specification:'Arial Bold';fill:#000000;fill-opacity:1;stroke:none;stroke-width:1.06666672px;stroke-linecap:butt;stroke-linejoin:miter;stroke-opacity:1"
       id="text3258">
      <path
         d="m 814.82112,966.39698 3.3,-0.32083 q 0.29792,1.66146 1.20313,2.44063 0.91666,0.77916 2.46354,0.77916 1.63854,0 2.46354,-0.6875 0.83646,-0.69896 0.83646,-1.62708 0,-0.59583 -0.35521,-1.00833 -0.34375,-0.42396 -1.21458,-0.73334 -0.59584,-0.20625 -2.71563,-0.73333 -2.72708,-0.67604 -3.82708,-1.66146 -1.54688,-1.38646 -1.54688,-3.38021 0,-1.28333 0.72188,-2.39479 0.73333,-1.12292 2.09687,-1.70729 1.375,-0.58438 3.31146,-0.58438 3.1625,0 4.75521,1.38646 1.60417,1.38646 1.68438,3.70104 l -3.39167,0.14896 q -0.21771,-1.29479 -0.93958,-1.85625 -0.71042,-0.57291 -2.14271,-0.57291 -1.47813,0 -2.31459,0.60729 -0.53854,0.38958 -0.53854,1.04271 0,0.59583 0.50417,1.01979 0.64167,0.53854 3.11667,1.12291 2.475,0.58438 3.6552,1.21459 1.19167,0.61875 1.85625,1.70729 0.67605,1.07708 0.67605,2.66979 0,1.44375 -0.80209,2.70417 -0.80208,1.26041 -2.26875,1.87916 -1.46666,0.6073 -3.65521,0.6073 -3.18541,0 -4.8927,-1.46667 -1.7073,-1.47813 -2.03959,-4.29688 z"
         style="font-style:normal;font-variant:normal;font-weight:bold;font-stretch:normal;font-size:23.46666718px;line-height:1.25;font-family:Arial;-inkscape-font-specification:'Arial Bold';stroke-width:1.06666672px"
         id="path5304"
         inkscape:connector-curvature="0" />
      <path
         d="m 842.10341,965.68657 3.28855,1.04271 q -0.75625,2.75 -2.52084,4.09062 -1.75312,1.32917 -4.45729,1.32917 -3.34583,0 -5.5,-2.28021 -2.15417,-2.29167 -2.15417,-6.25625 0,-4.19375 2.16563,-6.50833 2.16562,-2.32605 5.69479,-2.32605 3.08229,0 5.00729,1.82188 1.14584,1.07708 1.71875,3.09375 l -3.35729,0.80208 q -0.29792,-1.30625 -1.24896,-2.0625 -0.93958,-0.75625 -2.29166,-0.75625 -1.86771,0 -3.03646,1.34063 -1.15729,1.34062 -1.15729,4.34271 0,3.18541 1.14583,4.5375 1.14583,1.35208 2.97917,1.35208 1.35208,0 2.32604,-0.85938 0.97396,-0.85937 1.39791,-2.70416 z"
         style="font-style:normal;font-variant:normal;font-weight:bold;font-stretch:normal;font-size:23.46666718px;line-height:1.25;font-family:Arial;-inkscape-font-specification:'Arial Bold';stroke-width:1.06666672px"
         id="path5306"
         inkscape:connector-curvature="0" />
      <path
         d="m 848.31383,971.86261 v -16.79792 h 12.45521 v 2.84167 h -9.06354 v 3.72396 h 8.43333 v 2.83021 h -8.43333 v 4.57187 h 9.38437 v 2.83021 z"
         style="font-style:normal;font-variant:normal;font-weight:bold;font-stretch:normal;font-size:23.46666718px;line-height:1.25;font-family:Arial;-inkscape-font-specification:'Arial Bold';stroke-width:1.06666672px"
         id="path5308"
         inkscape:connector-curvature="0" />
      <path
         d="m 864.02321,971.86261 v -16.79792 h 3.3 l 6.875,11.21771 v -11.21771 h 3.15104 v 16.79792 h -3.40313 l -6.77187,-10.95417 v 10.95417 z"
         style="font-style:normal;font-variant:normal;font-weight:bold;font-stretch:normal;font-size:23.46666718px;line-height:1.25;font-family:Arial;-inkscape-font-specification:'Arial Bold';stroke-width:1.06666672px"
         id="path5310"
         inkscape:connector-curvature="0" />
      <path
         d="m 880.94717,971.86261 v -16.79792 h 12.45521 v 2.84167 h -9.06355 v 3.72396 h 8.43334 v 2.83021 h -8.43334 v 4.57187 h 9.38438 v 2.83021 z"
         style="font-style:normal;font-variant:normal;font-weight:bold;font-stretch:normal;font-size:23.46666718px;line-height:1.25;font-family:Arial;-inkscape-font-specification:'Arial Bold';stroke-width:1.06666672px"
         id="path5312"
         inkscape:connector-curvature="0" />
    </g>
    <g
       aria-label="TAKE"
       style="font-style:normal;font-variant:normal;font-weight:bold;font-stretch:normal;font-size:12.80000019px;line-height:0%;font-family:Arial;-inkscape-font-specification:'Arial Bold';fill:#000000;fill-opacity:1;stroke:none;stroke-width:1.06666672px;stroke-linecap:butt;stroke-linejoin:miter;stroke-opacity:1"
       id="text3262">
      <path
         d="M 1002.187,971.86835 V 957.9121 h -4.98441 v -2.84167 h 13.34901 v 2.84167 h -4.973 v 13.95625 z"
         style="font-style:normal;font-variant:normal;font-weight:bold;font-stretch:normal;font-size:23.46666718px;line-height:1.25;font-family:Arial;-inkscape-font-specification:'Arial Bold';stroke-width:1.06666672px"
         id="path5292"
         inkscape:connector-curvature="0" />
      <path
         d="m 1026.1578,971.86835 h -3.6896 l -1.4666,-3.81563 h -6.7146 l -1.3865,3.81563 h -3.5979 l 6.5427,-16.79792 h 3.5865 z m -6.2448,-6.64584 -2.3146,-6.23333 -2.2687,6.23333 z"
         style="font-style:normal;font-variant:normal;font-weight:bold;font-stretch:normal;font-size:23.46666718px;line-height:1.25;font-family:Arial;-inkscape-font-specification:'Arial Bold';stroke-width:1.06666672px"
         id="path5294"
         inkscape:connector-curvature="0" />
      <path
         d="m 1028.0141,971.86835 v -16.79792 h 3.3916 v 7.45938 l 6.8521,-7.45938 h 4.5604 l -6.325,6.54271 6.6688,10.25521 h -4.3886 l -4.6177,-7.88334 -2.75,2.8073 v 5.07604 z"
         style="font-style:normal;font-variant:normal;font-weight:bold;font-stretch:normal;font-size:23.46666718px;line-height:1.25;font-family:Arial;-inkscape-font-specification:'Arial Bold';stroke-width:1.06666672px"
         id="path5296"
         inkscape:connector-curvature="0" />
      <path
         d="m 1044.9266,971.86835 v -16.79792 h 12.4552 v 2.84167 h -9.0636 v 3.72396 h 8.4334 v 2.8302 h -8.4334 v 4.57188 h 9.3844 v 2.83021 z"
         style="font-style:normal;font-variant:normal;font-weight:bold;font-stretch:normal;font-size:23.46666718px;line-height:1.25;font-family:Arial;-inkscape-font-specification:'Arial Bold';stroke-width:1.06666672px"
         id="path5298"
         inkscape:connector-curvature="0" />
    </g>
    <g
       aria-label="NO."
       style="font-style:normal;font-variant:normal;font-weight:bold;font-stretch:normal;font-size:12.80000019px;line-height:0%;font-family:Arial;-inkscape-font-specification:'Arial Bold';fill:#000000;fill-opacity:1;stroke:none;stroke-width:1.06666672px;stroke-linecap:butt;stroke-linejoin:miter;stroke-opacity:1"
       id="text3266">
      <path
         d="m 1000.5722,1129.4017 v -16.7979 h 3.3 l 6.875,11.2177 v -11.2177 h 3.151 v 16.7979 h -3.4031 l -6.7719,-10.9541 v 10.9541 z"
         style="font-style:normal;font-variant:normal;font-weight:bold;font-stretch:normal;font-size:23.46666718px;line-height:1.25;font-family:Arial;-inkscape-font-specification:'Arial Bold';stroke-width:1.06666672px"
         id="path5282"
         inkscape:connector-curvature="0" />
      <path
         d="m 1016.8086,1121.1059 q 0,-2.5667 0.7677,-4.3083 0.573,-1.2834 1.5584,-2.3032 0.9968,-1.0198 2.1771,-1.5125 1.5697,-0.6645 3.6208,-0.6645 3.7125,0 5.9354,2.3031 2.2344,2.3031 2.2344,6.4052 0,4.0677 -2.2115,6.3708 -2.2114,2.2917 -5.9125,2.2917 -3.7469,0 -5.9583,-2.2802 -2.2115,-2.2917 -2.2115,-6.3021 z m 3.4948,-0.1146 q 0,2.8531 1.3177,4.3313 1.3177,1.4666 3.3459,1.4666 2.0281,0 3.3229,-1.4552 1.3062,-1.4666 1.3062,-4.3885 0,-2.8875 -1.2718,-4.3084 -1.2605,-1.4208 -3.3573,-1.4208 -2.0969,0 -3.3802,1.4438 -1.2834,1.4323 -1.2834,4.3312 z"
         style="font-style:normal;font-variant:normal;font-weight:bold;font-stretch:normal;font-size:23.46666718px;line-height:1.25;font-family:Arial;-inkscape-font-specification:'Arial Bold';stroke-width:1.06666672px"
         id="path5284"
         inkscape:connector-curvature="0" />
      <path
         d="m 1035.7149,1129.4017 v -3.2198 h 3.2198 v 3.2198 z"
         style="font-style:normal;font-variant:normal;font-weight:bold;font-stretch:normal;font-size:23.46666718px;line-height:1.25;font-family:Arial;-inkscape-font-specification:'Arial Bold';stroke-width:1.06666672px"
         id="path5286"
         inkscape:connector-curvature="0" />
    </g>
    <g
       aria-label="DIRECTOR"
       style="font-style:normal;font-variant:normal;font-weight:bold;font-stretch:normal;font-size:11.3899765px;line-height:0%;font-family:Arial;-inkscape-font-specification:'Arial Bold';fill:#000000;fill-opacity:1;stroke:none;stroke-width:0.94916475px;stroke-linecap:butt;stroke-linejoin:miter;stroke-opacity:1"
       id="text3270">
      <path
         d="m 614.75286,1093.0873 h 5.51609 q 1.86589,0 2.84472,0.2855 1.31529,0.3874 2.25333,1.3765 0.93805,0.989 1.42746,2.4266 0.48941,1.4275 0.48941,3.5279 0,1.8455 -0.45882,3.1812 -0.56079,1.6314 -1.60079,2.6408 -0.7851,0.7647 -2.12079,1.1929 -0.99922,0.3161 -2.67138,0.3161 h -5.67923 z m 3.01805,2.5286 v 9.9005 h 2.25334 q 1.26431,0 1.8251,-0.1428 0.73412,-0.1835 1.21334,-0.622 0.48941,-0.4384 0.79529,-1.4376 0.30588,-1.0094 0.30588,-2.7428 0,-1.7333 -0.30588,-2.6611 -0.30588,-0.9279 -0.85647,-1.4479 -0.55059,-0.52 -1.39687,-0.7035 -0.63216,-0.1428 -2.47765,-0.1428 z"
         style="font-style:normal;font-variant:normal;font-weight:bold;font-stretch:normal;font-size:20.88162422px;line-height:1.25;font-family:Arial;-inkscape-font-specification:'Arial Bold';stroke-width:0.94916475px"
         id="path5235"
         inkscape:connector-curvature="0" />
      <path
         d="m 629.76153,1108.0348 v -14.9475 h 3.01804 v 14.9475 z"
         style="font-style:normal;font-variant:normal;font-weight:bold;font-stretch:normal;font-size:20.88162422px;line-height:1.25;font-family:Arial;-inkscape-font-specification:'Arial Bold';stroke-width:0.94916475px"
         id="path5237"
         inkscape:connector-curvature="0" />
      <path
         d="m 635.65488,1108.0348 v -14.9475 h 6.35217 q 2.39608,0 3.47687,0.4078 1.09098,0.3977 1.74354,1.4275 0.65255,1.0298 0.65255,2.3553 0,1.6824 -0.98903,2.7835 -0.98902,1.091 -2.95687,1.3765 0.97883,0.571 1.61099,1.2541 0.64235,0.6832 1.72314,2.4267 l 1.8251,2.9161 h -3.60942 l -2.18197,-3.2526 q -1.16235,-1.7435 -1.59059,-2.1921 -0.42823,-0.4589 -0.90745,-0.622 -0.47922,-0.1733 -1.51922,-0.1733 h -0.61177 v 6.24 z m 3.01804,-8.6259 h 2.23295 q 2.17177,0 2.71216,-0.1835 0.5404,-0.1836 0.84628,-0.6322 0.30588,-0.4486 0.30588,-1.1216 0,-0.7545 -0.40784,-1.2133 -0.39765,-0.469 -1.13177,-0.5914 -0.36706,-0.051 -2.20236,-0.051 h -2.3553 z"
         style="font-style:normal;font-variant:normal;font-weight:bold;font-stretch:normal;font-size:20.88162422px;line-height:1.25;font-family:Arial;-inkscape-font-specification:'Arial Bold';stroke-width:0.94916475px"
         id="path5239"
         inkscape:connector-curvature="0" />
      <path
         d="m 650.73492,1108.0348 v -14.9475 h 11.08316 v 2.5286 h -8.06511 v 3.3138 h 7.50433 v 2.5184 h -7.50433 v 4.0683 h 8.35061 v 2.5184 z"
         style="font-style:normal;font-variant:normal;font-weight:bold;font-stretch:normal;font-size:20.88162422px;line-height:1.25;font-family:Arial;-inkscape-font-specification:'Arial Bold';stroke-width:0.94916475px"
         id="path5241"
         inkscape:connector-curvature="0" />
      <path
         d="m 674.24714,1102.5391 2.92628,0.9278 q -0.67294,2.4471 -2.24314,3.64 -1.56001,1.1828 -3.96629,1.1828 -2.97726,0 -4.89413,-2.029 -1.91687,-2.0393 -1.91687,-5.5671 0,-3.7318 1.92707,-5.7914 1.92706,-2.0698 5.06746,-2.0698 2.74275,0 4.4557,1.6212 1.01961,0.9584 1.52942,2.7529 l -2.98746,0.7138 q -0.2651,-1.1624 -1.11138,-1.8353 -0.83608,-0.673 -2.03922,-0.673 -1.66197,0 -2.70197,1.193 -1.0298,1.1929 -1.0298,3.8643 0,2.8345 1.01961,4.0376 1.01961,1.2032 2.65098,1.2032 1.20314,0 2.06981,-0.7647 0.86667,-0.7647 1.24393,-2.4063 z"
         style="font-style:normal;font-variant:normal;font-weight:bold;font-stretch:normal;font-size:20.88162422px;line-height:1.25;font-family:Arial;-inkscape-font-specification:'Arial Bold';stroke-width:0.94916475px"
         id="path5243"
         inkscape:connector-curvature="0" />
      <path
         d="m 683.13814,1108.0348 v -12.4189 h -4.43531 v -2.5286 h 11.87847 v 2.5286 h -4.42511 v 12.4189 z"
         style="font-style:normal;font-variant:normal;font-weight:bold;font-stretch:normal;font-size:20.88162422px;line-height:1.25;font-family:Arial;-inkscape-font-specification:'Arial Bold';stroke-width:0.94916475px"
         id="path5245"
         inkscape:connector-curvature="0" />
      <path
         d="m 691.56013,1100.6528 q 0,-2.2839 0.68313,-3.8337 0.50981,-1.142 1.38667,-2.0494 0.88707,-0.9075 1.93726,-1.3459 1.39687,-0.5914 3.22197,-0.5914 3.30354,0 5.28159,2.0494 1.98824,2.0494 1.98824,5.6996 0,3.6197 -1.96785,5.6691 -1.96785,2.0392 -5.26119,2.0392 -3.33413,0 -5.30198,-2.029 -1.96784,-2.0393 -1.96784,-5.6079 z m 3.10981,-0.102 q 0,2.5389 1.17255,3.8542 1.17255,1.3051 2.97726,1.3051 1.80471,0 2.95687,-1.2949 1.16236,-1.3051 1.16236,-3.9051 0,-2.5695 -1.13177,-3.8338 -1.12157,-1.2643 -2.98746,-1.2643 -1.86588,0 -3.00785,1.2847 -1.14196,1.2745 -1.14196,3.8541 z"
         style="font-style:normal;font-variant:normal;font-weight:bold;font-stretch:normal;font-size:20.88162422px;line-height:1.25;font-family:Arial;-inkscape-font-specification:'Arial Bold';stroke-width:0.94916475px"
         id="path5247"
         inkscape:connector-curvature="0" />
      <path
         d="m 708.41429,1108.0348 v -14.9475 h 6.35217 q 2.39609,0 3.47687,0.4078 1.09099,0.3977 1.74354,1.4275 0.65255,1.0298 0.65255,2.3553 0,1.6824 -0.98902,2.7835 -0.98903,1.091 -2.95687,1.3765 0.97882,0.571 1.61098,1.2541 0.64236,0.6832 1.72314,2.4267 l 1.82511,2.9161 h -3.60943 l -2.18196,-3.2526 q -1.16236,-1.7435 -1.5906,-2.1921 -0.42823,-0.4589 -0.90745,-0.622 -0.47922,-0.1733 -1.51922,-0.1733 h -0.61176 v 6.24 z m 3.01805,-8.6259 h 2.23294 q 2.17177,0 2.71217,-0.1835 0.54039,-0.1836 0.84627,-0.6322 0.30589,-0.4486 0.30589,-1.1216 0,-0.7545 -0.40785,-1.2133 -0.39765,-0.469 -1.13177,-0.5914 -0.36706,-0.051 -2.20235,-0.051 h -2.3553 z"
         style="font-style:normal;font-variant:normal;font-weight:bold;font-stretch:normal;font-size:20.88162422px;line-height:1.25;font-family:Arial;-inkscape-font-specification:'Arial Bold';stroke-width:0.94916475px"
         id="path5249"
         inkscape:connector-curvature="0" />
    </g>
    <g
       aria-label="ROLL"
       style="font-style:normal;font-variant:normal;font-weight:bold;font-stretch:normal;font-size:12.80000019px;line-height:0%;font-family:Arial;-inkscape-font-specification:'Arial Bold';fill:#000000;fill-opacity:1;stroke:none;stroke-width:1.06666672px;stroke-linecap:butt;stroke-linejoin:miter;stroke-opacity:1"
       id="text3274">
      <path
         d="m 638.99951,971.86835 v -16.79792 h 7.13854 q 2.69271,0 3.9073,0.45833 1.22604,0.44688 1.95937,1.60417 0.73333,1.15729 0.73333,2.64688 0,1.89062 -1.11145,3.12812 -1.11146,1.22604 -3.32292,1.54688 1.1,0.64166 1.81042,1.40937 0.72187,0.76771 1.93645,2.72708 l 2.05105,3.27709 h -4.05625 l -2.45209,-3.65521 q -1.30625,-1.95938 -1.7875,-2.46354 -0.48125,-0.51563 -1.01979,-0.69896 -0.53854,-0.19479 -1.70729,-0.19479 h -0.6875 v 7.0125 z m 3.39167,-9.69375 h 2.50937 q 2.44063,0 3.04792,-0.20625 0.60729,-0.20625 0.95104,-0.71042 0.34375,-0.50417 0.34375,-1.26042 0,-0.84791 -0.45833,-1.36354 -0.44688,-0.52708 -1.27188,-0.66458 -0.4125,-0.0573 -2.475,-0.0573 h -2.64687 z"
         style="font-style:normal;font-variant:normal;font-weight:bold;font-stretch:normal;font-size:23.46666718px;line-height:1.25;font-family:Arial;-inkscape-font-specification:'Arial Bold';stroke-width:1.06666672px"
         id="path5318"
         inkscape:connector-curvature="0" />
      <path
         d="m 655.25889,963.57251 q 0,-2.56666 0.76771,-4.30833 0.57291,-1.28333 1.55833,-2.30312 0.99687,-1.0198 2.17708,-1.5125 1.56979,-0.66459 3.62084,-0.66459 3.7125,0 5.93541,2.30313 2.23438,2.30312 2.23438,6.40521 0,4.0677 -2.21146,6.37083 -2.21146,2.29167 -5.9125,2.29167 -3.74688,0 -5.95833,-2.28021 -2.21146,-2.29167 -2.21146,-6.30209 z m 3.49479,-0.11458 q 0,2.85313 1.31771,4.33125 1.31771,1.46667 3.34583,1.46667 2.02813,0 3.32292,-1.45521 1.30625,-1.46667 1.30625,-4.38854 0,-2.8875 -1.27188,-4.30834 -1.26041,-1.42083 -3.35729,-1.42083 -2.09687,0 -3.38021,1.44375 -1.28333,1.43229 -1.28333,4.33125 z"
         style="font-style:normal;font-variant:normal;font-weight:bold;font-stretch:normal;font-size:23.46666718px;line-height:1.25;font-family:Arial;-inkscape-font-specification:'Arial Bold';stroke-width:1.06666672px"
         id="path5320"
         inkscape:connector-curvature="0" />
      <path
         d="m 674.27972,971.86835 v -16.66042 h 3.39167 v 13.83021 h 8.43333 v 2.83021 z"
         style="font-style:normal;font-variant:normal;font-weight:bold;font-stretch:normal;font-size:23.46666718px;line-height:1.25;font-family:Arial;-inkscape-font-specification:'Arial Bold';stroke-width:1.06666672px"
         id="path5322"
         inkscape:connector-curvature="0" />
      <path
         d="m 688.62555,971.86835 v -16.66042 h 3.39167 v 13.83021 h 8.43333 v 2.83021 z"
         style="font-style:normal;font-variant:normal;font-weight:bold;font-stretch:normal;font-size:23.46666718px;line-height:1.25;font-family:Arial;-inkscape-font-specification:'Arial Bold';stroke-width:1.06666672px"
         id="path5324"
         inkscape:connector-curvature="0" />
    </g>
    <g
       aria-label="CAMERA"
       style="font-style:normal;font-variant:normal;font-weight:bold;font-stretch:normal;font-size:11.3899765px;line-height:0%;font-family:Arial;-inkscape-font-specification:'Arial Bold';fill:#000000;fill-opacity:1;stroke:none;stroke-width:0.94916475px;stroke-linecap:butt;stroke-linejoin:miter;stroke-opacity:1"
       id="text4911">
      <path
         d="m 628.54288,1164.3517 2.92629,0.9279 q -0.67295,2.447 -2.24315,3.64 -1.56,1.1827 -3.96628,1.1827 -2.97727,0 -4.89413,-2.029 -1.91687,-2.0392 -1.91687,-5.5671 0,-3.7318 1.92706,-5.7914 1.92707,-2.0698 5.06747,-2.0698 2.74275,0 4.4557,1.6212 1.01961,0.9584 1.52941,2.7529 l -2.98746,0.7138 q -0.2651,-1.1624 -1.11137,-1.8353 -0.83608,-0.673 -2.03922,-0.673 -1.66197,0 -2.70197,1.193 -1.02981,1.1929 -1.02981,3.8643 0,2.8345 1.01961,4.0377 1.01961,1.2031 2.65099,1.2031 1.20314,0 2.06981,-0.7647 0.86667,-0.7647 1.24392,-2.4063 z"
         style="font-style:normal;font-variant:normal;font-weight:bold;font-stretch:normal;font-size:20.88162422px;line-height:1.25;font-family:Arial;-inkscape-font-specification:'Arial Bold';stroke-width:0.94916475px"
         id="path5222"
         inkscape:connector-curvature="0" />
      <path
         d="m 647.54842,1169.8474 h -3.28314 l -1.3051,-3.3953 h -5.97492 l -1.23373,3.3953 h -3.20158 l 5.82198,-14.9475 h 3.19138 z m -5.55687,-5.9137 -2.05962,-5.5467 -2.01883,5.5467 z"
         style="font-style:normal;font-variant:normal;font-weight:bold;font-stretch:normal;font-size:20.88162422px;line-height:1.25;font-family:Arial;-inkscape-font-specification:'Arial Bold';stroke-width:0.94916475px"
         id="path5224"
         inkscape:connector-curvature="0" />
      <path
         d="m 649.11863,1169.8474 v -14.9475 h 4.51687 l 2.71216,10.1961 2.68158,-10.1961 h 4.52707 v 14.9475 h -2.80393 v -11.7663 l -2.96706,11.7663 h -2.90589 l -2.95688,-11.7663 v 11.7663 z"
         style="font-style:normal;font-variant:normal;font-weight:bold;font-stretch:normal;font-size:20.88162422px;line-height:1.25;font-family:Arial;-inkscape-font-specification:'Arial Bold';stroke-width:0.94916475px"
         id="path5226"
         inkscape:connector-curvature="0" />
      <path
         d="m 666.57436,1169.8474 v -14.9475 h 11.08316 v 2.5287 h -8.06512 v 3.3137 h 7.50434 v 2.5184 h -7.50434 v 4.0683 h 8.35062 v 2.5184 z"
         style="font-style:normal;font-variant:normal;font-weight:bold;font-stretch:normal;font-size:20.88162422px;line-height:1.25;font-family:Arial;-inkscape-font-specification:'Arial Bold';stroke-width:0.94916475px"
         id="path5228"
         inkscape:connector-curvature="0" />
      <path
         d="m 680.53283,1169.8474 v -14.9475 h 6.35217 q 2.39608,0 3.47687,0.4079 1.09099,0.3976 1.74354,1.4274 0.65255,1.0298 0.65255,2.3553 0,1.6824 -0.98903,2.7836 -0.98902,1.0909 -2.95687,1.3764 0.97883,0.571 1.61099,1.2542 0.64235,0.6831 1.72314,2.4266 l 1.8251,2.9161 h -3.60942 l -2.18196,-3.2525 q -1.16236,-1.7436 -1.5906,-2.1922 -0.42823,-0.4588 -0.90745,-0.622 -0.47922,-0.1733 -1.51922,-0.1733 h -0.61177 v 6.24 z m 3.01804,-8.6259 h 2.23295 q 2.17177,0 2.71216,-0.1835 0.5404,-0.1836 0.84628,-0.6322 0.30588,-0.4486 0.30588,-1.1216 0,-0.7545 -0.40784,-1.2133 -0.39765,-0.469 -1.13177,-0.5914 -0.36706,-0.051 -2.20236,-0.051 h -2.3553 z"
         style="font-style:normal;font-variant:normal;font-weight:bold;font-stretch:normal;font-size:20.88162422px;line-height:1.25;font-family:Arial;-inkscape-font-specification:'Arial Bold';stroke-width:0.94916475px"
         id="path5230"
         inkscape:connector-curvature="0" />
      <path
         d="m 709.09211,1169.8474 h -3.28314 l -1.3051,-3.3953 h -5.97492 l -1.23373,3.3953 h -3.20158 l 5.82198,-14.9475 h 3.19138 z m -5.55687,-5.9137 -2.05962,-5.5467 -2.01883,5.5467 z"
         style="font-style:normal;font-variant:normal;font-weight:bold;font-stretch:normal;font-size:20.88162422px;line-height:1.25;font-family:Arial;-inkscape-font-specification:'Arial Bold';stroke-width:0.94916475px"
         id="path5232"
         inkscape:connector-curvature="0" />
    </g>
    <g
       aria-label="DATE"
       style="font-style:normal;font-variant:normal;font-weight:bold;font-stretch:normal;font-size:11.3899765px;line-height:0%;font-family:Arial;-inkscape-font-specification:'Arial Bold';fill:#000000;fill-opacity:1;stroke:none;stroke-width:0.94916475px;stroke-linecap:butt;stroke-linejoin:miter;stroke-opacity:1"
       id="text3278">
      <path
         d="m 619.48266,1203.2042 h 5.51609 q 1.86589,0 2.84471,0.2855 1.3153,0.3875 2.25334,1.3765 0.93804,0.989 1.42746,2.4267 0.48941,1.4274 0.48941,3.5278 0,1.8455 -0.45882,3.1812 -0.56079,1.6314 -1.60079,2.6408 -0.7851,0.7647 -2.12079,1.193 -0.99922,0.316 -2.67138,0.316 h -5.67923 z m 3.01804,2.5287 v 9.9004 h 2.25334 q 1.26432,0 1.82511,-0.1428 0.73412,-0.1835 1.21333,-0.6219 0.48942,-0.4384 0.7953,-1.4377 0.30588,-1.0094 0.30588,-2.7427 0,-1.7334 -0.30588,-2.6612 -0.30588,-0.9278 -0.85647,-1.4478 -0.55059,-0.52 -1.39687,-0.7036 -0.63216,-0.1427 -2.47765,-0.1427 z"
         style="font-style:normal;font-variant:normal;font-weight:bold;font-stretch:normal;font-size:20.88162422px;line-height:1.25;font-family:Arial;-inkscape-font-specification:'Arial Bold';stroke-width:0.94916475px"
         id="path5213"
         inkscape:connector-curvature="0" />
      <path
         d="m 648.06234,1218.1517 h -3.28315 l -1.3051,-3.3953 h -5.97491 l -1.23373,3.3953 h -3.20158 l 5.82198,-14.9475 h 3.19138 z m -5.55688,-5.9137 -2.05961,-5.5467 -2.01883,5.5467 z"
         style="font-style:normal;font-variant:normal;font-weight:bold;font-stretch:normal;font-size:20.88162422px;line-height:1.25;font-family:Arial;-inkscape-font-specification:'Arial Bold';stroke-width:0.94916475px"
         id="path5215"
         inkscape:connector-curvature="0" />
      <path
         d="m 651.48823,1218.1517 v -12.4188 h -4.4353 v -2.5287 h 11.87846 v 2.5287 h -4.42511 v 12.4188 z"
         style="font-style:normal;font-variant:normal;font-weight:bold;font-stretch:normal;font-size:20.88162422px;line-height:1.25;font-family:Arial;-inkscape-font-specification:'Arial Bold';stroke-width:0.94916475px"
         id="path5217"
         inkscape:connector-curvature="0" />
      <path
         d="m 660.88904,1218.1517 v -14.9475 h 11.08317 v 2.5287 h -8.06512 v 3.3137 h 7.50433 v 2.5184 h -7.50433 v 4.0683 h 8.35061 v 2.5184 z"
         style="font-style:normal;font-variant:normal;font-weight:bold;font-stretch:normal;font-size:20.88162422px;line-height:1.25;font-family:Arial;-inkscape-font-specification:'Arial Bold';stroke-width:0.94916475px"
         id="path5219"
         inkscape:connector-curvature="0" />
    </g>
    <g
       aria-label="5"
       style="font-style:normal;font-variant:normal;font-weight:bold;font-stretch:normal;font-size:12.80000019px;line-height:0%;font-family:Arial;-inkscape-font-specification:'Arial Bold';fill:#000000;fill-opacity:1;stroke:none;stroke-width:1.06666672px;stroke-linecap:butt;stroke-linejoin:miter;stroke-opacity:1"
       id="text3296">
      <path
         d="m 646.53701,1029.7613 10.5,-1.0875 q 0.45,3.5625 2.6625,5.6625 2.2125,2.0625 5.1,2.0625 3.30001,0 5.58751,-2.6625 2.2875,-2.7 2.2875,-8.1 0,-5.0625 -2.2875,-7.575 -2.25,-2.55 -5.88751,-2.55 -4.5375,0 -8.1375,4.0125 l -8.55,-1.2375 5.4,-28.6125 h 27.86251 v 9.8625 h -19.87501 l -1.65,9.3375 q 3.525,-1.7625 7.20001,-1.7625 7.0125,0 11.8875,5.1 4.875,5.1 4.875,13.2375 0,6.7875 -3.9375,12.1125 -5.3625,7.275 -14.88751,7.275 -7.6125,0 -12.4125,-4.0875 -4.8,-4.0875 -5.7375,-10.9875 z"
         style="font-style:normal;font-variant:normal;font-weight:bold;font-stretch:normal;font-size:76.80001068px;line-height:1.25;font-family:Arial;-inkscape-font-specification:'Arial Bold';stroke-width:1.06666672px"
         id="path5315"
         inkscape:connector-curvature="0" />
    </g>
    <g
       aria-label="2"
       style="font-style:normal;font-variant:normal;font-weight:bold;font-stretch:normal;font-size:12.80000019px;line-height:0%;font-family:Arial;-inkscape-font-specification:'Arial Bold';fill:#000000;fill-opacity:1;stroke:none;stroke-width:1.06666672px;stroke-linecap:butt;stroke-linejoin:miter;stroke-opacity:1"
       id="text3300">
      <path
         d="m 874.00253,1035.0676 v 9.7875 h -36.9375 q 0.6,-5.55 3.6,-10.5 3,-4.9875 11.85,-13.2 7.125,-6.6375 8.7375,-9 2.175,-3.2625 2.175,-6.45 0,-3.525 -1.9125,-5.4 -1.875,-1.9125 -5.2125,-1.9125 -3.3,0 -5.25,1.9875 -1.95,1.9875 -2.25,6.6 l -10.5,-1.05 q 0.9375,-8.7 5.8875,-12.4875 4.95,-3.78751 12.375,-3.78751 8.1375,0 12.7875,4.38751 4.65,4.3875 4.65,10.9125 0,3.7125 -1.35,7.0875 -1.3125,3.3375 -4.2,7.0125 -1.9125,2.4375 -6.9,7.0125 -4.9875,4.575 -6.3375,6.075 -1.3125,1.5 -2.1375,2.925 z"
         style="font-style:normal;font-variant:normal;font-weight:bold;font-stretch:normal;font-size:76.80001068px;line-height:1.25;font-family:Arial;-inkscape-font-specification:'Arial Bold';stroke-width:1.06666672px"
         id="path5301"
         inkscape:connector-curvature="0" />
    </g>
    <g
       aria-label="4"
       style="font-style:normal;font-variant:normal;font-weight:bold;font-stretch:normal;font-size:12.80000019px;line-height:0%;font-family:Arial;-inkscape-font-specification:'Arial Bold';fill:#000000;fill-opacity:1;stroke:none;stroke-width:1.06666672px;stroke-linecap:butt;stroke-linejoin:miter;stroke-opacity:1"
       id="text3304">
      <path
         d="m 1030.8578,1044.8551 v -11.0625 h -22.5 v -9.225 l 23.85,-34.91251 h 8.85 v 34.87501 h 6.825 v 9.2625 h -6.825 v 11.0625 z m 0,-20.325 v -18.7875 l -12.6375,18.7875 z"
         style="font-style:normal;font-variant:normal;font-weight:bold;font-stretch:normal;font-size:76.80001068px;line-height:1.25;font-family:Arial;-inkscape-font-specification:'Arial Bold';stroke-width:1.06666672px"
         id="path5289"
         inkscape:connector-curvature="0" />
    </g>
    <g
       aria-label=" THE MOTION PICTURE"
       style="font-style:normal;font-variant:normal;font-weight:bold;font-stretch:normal;font-size:12.80000019px;line-height:0%;font-family:Arial;-inkscape-font-specification:'Arial Bold';fill:#000000;fill-opacity:1;stroke:none;stroke-width:1.06666672px;stroke-linecap:butt;stroke-linejoin:miter;stroke-opacity:1"
       id="text3312">
      <path
         d="m 707.51942,917.89769 v -15.225 h -5.4375 v -3.1 h 14.5625 v 3.1 h -5.425 v 15.225 z"
         style="font-style:normal;font-variant:normal;font-weight:bold;font-stretch:normal;font-size:25.60000038px;line-height:1.25;font-family:Arial;-inkscape-font-specification:'Arial Bold';stroke-width:1.06666672px"
         id="path5338"
         inkscape:connector-curvature="0" />
      <path
         d="m 719.05692,917.89769 v -18.325 h 3.7 v 7.2125 h 7.25 v -7.2125 h 3.7 v 18.325 h -3.7 v -8.0125 h -7.25 v 8.0125 z"
         style="font-style:normal;font-variant:normal;font-weight:bold;font-stretch:normal;font-size:25.60000038px;line-height:1.25;font-family:Arial;-inkscape-font-specification:'Arial Bold';stroke-width:1.06666672px"
         id="path5340"
         inkscape:connector-curvature="0" />
      <path
         d="m 737.54442,917.89769 v -18.325 h 13.5875 v 3.1 h -9.8875 v 4.0625 h 9.2 v 3.0875 h -9.2 v 4.9875 h 10.2375 v 3.0875 z"
         style="font-style:normal;font-variant:normal;font-weight:bold;font-stretch:normal;font-size:25.60000038px;line-height:1.25;font-family:Arial;-inkscape-font-specification:'Arial Bold';stroke-width:1.06666672px"
         id="path5342"
         inkscape:connector-curvature="0" />
      <path
         d="m 761.69442,917.89769 v -18.325 h 5.5375 l 3.325,12.5 3.2875,-12.5 h 5.55 v 18.325 h -3.4375 v -14.425 l -3.6375,14.425 h -3.5625 l -3.625,-14.425 v 14.425 z"
         style="font-style:normal;font-variant:normal;font-weight:bold;font-stretch:normal;font-size:25.60000038px;line-height:1.25;font-family:Arial;-inkscape-font-specification:'Arial Bold';stroke-width:1.06666672px"
         id="path5344"
         inkscape:connector-curvature="0" />
      <path
         d="m 782.34443,908.84769 q 0,-2.8 0.8375,-4.7 0.625,-1.4 1.7,-2.5125 1.0875,-1.1125 2.375,-1.65 1.7125,-0.725 3.95,-0.725 4.05,0 6.475,2.5125 2.4375,2.5125 2.4375,6.9875 0,4.4375 -2.4125,6.95 -2.4125,2.5 -6.45,2.5 -4.0875,0 -6.5,-2.4875 -2.4125,-2.5 -2.4125,-6.875 z m 3.8125,-0.125 q 0,3.1125 1.4375,4.725 1.4375,1.6 3.65,1.6 2.2125,0 3.625,-1.5875 1.425,-1.6 1.425,-4.7875 0,-3.15 -1.3875,-4.7 -1.375,-1.55 -3.6625,-1.55 -2.2875,0 -3.6875,1.575 -1.4,1.5625 -1.4,4.725 z"
         style="font-style:normal;font-variant:normal;font-weight:bold;font-stretch:normal;font-size:25.60000038px;line-height:1.25;font-family:Arial;-inkscape-font-specification:'Arial Bold';stroke-width:1.06666672px"
         id="path5346"
         inkscape:connector-curvature="0" />
      <path
         d="m 807.11942,917.89769 v -15.225 h -5.4375 v -3.1 h 14.5625 v 3.1 h -5.425 v 15.225 z"
         style="font-style:normal;font-variant:normal;font-weight:bold;font-stretch:normal;font-size:25.60000038px;line-height:1.25;font-family:Arial;-inkscape-font-specification:'Arial Bold';stroke-width:1.06666672px"
         id="path5348"
         inkscape:connector-curvature="0" />
      <path
         d="m 818.53192,917.89769 v -18.325 h 3.7 v 18.325 z"
         style="font-style:normal;font-variant:normal;font-weight:bold;font-stretch:normal;font-size:25.60000038px;line-height:1.25;font-family:Arial;-inkscape-font-specification:'Arial Bold';stroke-width:1.06666672px"
         id="path5350"
         inkscape:connector-curvature="0" />
      <path
         d="m 824.99442,908.84769 q 0,-2.8 0.8375,-4.7 0.625,-1.4 1.7,-2.5125 1.0875,-1.1125 2.375,-1.65 1.7125,-0.725 3.95,-0.725 4.05,0 6.475,2.5125 2.4375,2.5125 2.4375,6.9875 0,4.4375 -2.4125,6.95 -2.4125,2.5 -6.45,2.5 -4.0875,0 -6.5,-2.4875 -2.4125,-2.5 -2.4125,-6.875 z m 3.8125,-0.125 q 0,3.1125 1.4375,4.725 1.4375,1.6 3.65,1.6 2.2125,0 3.625,-1.5875 1.425,-1.6 1.425,-4.7875 0,-3.15 -1.3875,-4.7 -1.375,-1.55 -3.6625,-1.55 -2.2875,0 -3.6875,1.575 -1.4,1.5625 -1.4,4.725 z"
         style="font-style:normal;font-variant:normal;font-weight:bold;font-stretch:normal;font-size:25.60000038px;line-height:1.25;font-family:Arial;-inkscape-font-specification:'Arial Bold';stroke-width:1.06666672px"
         id="path5352"
         inkscape:connector-curvature="0" />
      <path
         d="m 845.68192,917.89769 v -18.325 h 3.6 l 7.5,12.2375 v -12.2375 h 3.4375 v 18.325 h -3.7125 l -7.3875,-11.95 v 11.95 z"
         style="font-style:normal;font-variant:normal;font-weight:bold;font-stretch:normal;font-size:25.60000038px;line-height:1.25;font-family:Arial;-inkscape-font-specification:'Arial Bold';stroke-width:1.06666672px"
         id="path5354"
         inkscape:connector-curvature="0" />
      <path
         d="m 871.24443,917.89769 v -18.325 h 5.9375 q 3.375,0 4.4,0.275 1.575,0.4125 2.6375,1.8 1.0625,1.375 1.0625,3.5625 0,1.6875 -0.6125,2.8375 -0.6125,1.15 -1.5625,1.8125 -0.9375,0.65 -1.9125,0.8625 -1.325,0.2625 -3.8375,0.2625 h -2.4125 v 6.9125 z m 3.7,-15.225 v 5.2 h 2.025 q 2.1875,0 2.925,-0.2875 0.7375,-0.2875 1.15,-0.9 0.425,-0.6125 0.425,-1.425 0,-1 -0.5875,-1.65 -0.5875,-0.65 -1.4875,-0.8125 -0.6625,-0.125 -2.6625,-0.125 z"
         style="font-style:normal;font-variant:normal;font-weight:bold;font-stretch:normal;font-size:25.60000038px;line-height:1.25;font-family:Arial;-inkscape-font-specification:'Arial Bold';stroke-width:1.06666672px"
         id="path5356"
         inkscape:connector-curvature="0" />
      <path
         d="m 888.23192,917.89769 v -18.325 h 3.7 v 18.325 z"
         style="font-style:normal;font-variant:normal;font-weight:bold;font-stretch:normal;font-size:25.60000038px;line-height:1.25;font-family:Arial;-inkscape-font-specification:'Arial Bold';stroke-width:1.06666672px"
         id="path5358"
         inkscape:connector-curvature="0" />
      <path
         d="m 907.16942,911.16019 3.5875,1.1375 q -0.825,3 -2.75,4.4625 -1.9125,1.45 -4.8625,1.45 -3.65,0 -6,-2.4875 -2.35,-2.5 -2.35,-6.825 0,-4.575 2.3625,-7.1 2.3625,-2.5375 6.2125,-2.5375 3.3625,0 5.4625,1.9875 1.25,1.175 1.875,3.375 l -3.6625,0.875 q -0.325,-1.425 -1.3625,-2.25 -1.025,-0.825 -2.5,-0.825 -2.0375,0 -3.3125,1.4625 -1.2625,1.4625 -1.2625,4.7375 0,3.475 1.25,4.95 1.25,1.475 3.25,1.475 1.475,0 2.5375,-0.9375 1.0625,-0.9375 1.525,-2.95 z"
         style="font-style:normal;font-variant:normal;font-weight:bold;font-stretch:normal;font-size:25.60000038px;line-height:1.25;font-family:Arial;-inkscape-font-specification:'Arial Bold';stroke-width:1.06666672px"
         id="path5360"
         inkscape:connector-curvature="0" />
      <path
         d="m 918.06942,917.89769 v -15.225 h -5.4375 v -3.1 h 14.5625 v 3.1 h -5.425 v 15.225 z"
         style="font-style:normal;font-variant:normal;font-weight:bold;font-stretch:normal;font-size:25.60000038px;line-height:1.25;font-family:Arial;-inkscape-font-specification:'Arial Bold';stroke-width:1.06666672px"
         id="path5362"
         inkscape:connector-curvature="0" />
      <path
         d="m 929.56942,899.57269 h 3.7 v 9.925 q 0,2.3625 0.1375,3.0625 0.2375,1.125 1.125,1.8125 0.9,0.675 2.45,0.675 1.575,0 2.375,-0.6375 0.8,-0.65 0.9625,-1.5875 0.1625,-0.9375 0.1625,-3.1125 v -10.1375 h 3.7 v 9.625 q 0,3.3 -0.3,4.6625 -0.3,1.3625 -1.1125,2.3 -0.8,0.9375 -2.15,1.5 -1.35,0.55 -3.525,0.55 -2.625,0 -3.9875,-0.6 -1.35,-0.6125 -2.1375,-1.575 -0.7875,-0.975 -1.0375,-2.0375 -0.3625,-1.575 -0.3625,-4.65 z"
         style="font-style:normal;font-variant:normal;font-weight:bold;font-stretch:normal;font-size:25.60000038px;line-height:1.25;font-family:Arial;-inkscape-font-specification:'Arial Bold';stroke-width:1.06666672px"
         id="path5364"
         inkscape:connector-curvature="0" />
      <path
         d="m 948.10692,917.89769 v -18.325 h 7.7875 q 2.9375,0 4.2625,0.5 1.3375,0.4875 2.1375,1.75 0.8,1.2625 0.8,2.8875 0,2.0625 -1.2125,3.4125 -1.2125,1.3375 -3.625,1.6875 1.2,0.7 1.975,1.5375 0.7875,0.8375 2.1125,2.975 l 2.2375,3.575 h -4.425 l -2.675,-3.9875 q -1.425,-2.1375 -1.95,-2.6875 -0.525,-0.5625 -1.1125,-0.7625 -0.5875,-0.2125 -1.8625,-0.2125 h -0.75 v 7.65 z m 3.7,-10.575 h 2.7375 q 2.6625,0 3.325,-0.225 0.6625,-0.225 1.0375,-0.775 0.375,-0.55 0.375,-1.375 0,-0.925 -0.5,-1.4875 -0.4875,-0.575 -1.3875,-0.725 -0.45,-0.0625 -2.7,-0.0625 h -2.8875 z"
         style="font-style:normal;font-variant:normal;font-weight:bold;font-stretch:normal;font-size:25.60000038px;line-height:1.25;font-family:Arial;-inkscape-font-specification:'Arial Bold';stroke-width:1.06666672px"
         id="path5366"
         inkscape:connector-curvature="0" />
      <path
         d="m 966.59443,917.89769 v -18.325 h 13.5875 v 3.1 h -9.8875 v 4.0625 h 9.2 v 3.0875 h -9.2 v 4.9875 h 10.2375 v 3.0875 z"
         style="font-style:normal;font-variant:normal;font-weight:bold;font-stretch:normal;font-size:25.60000038px;line-height:1.25;font-family:Arial;-inkscape-font-specification:'Arial Bold';stroke-width:1.06666672px"
         id="path5368"
         inkscape:connector-curvature="0" />
    </g>
    <g
       aria-label="JOHN DOE"
       style="font-style:normal;font-variant:normal;font-weight:bold;font-stretch:normal;font-size:12.80000019px;line-height:0%;font-family:Arial;-inkscape-font-specification:'Arial Bold';fill:#000000;fill-opacity:1;stroke:none;stroke-width:1.06666672px;stroke-linecap:butt;stroke-linejoin:miter;stroke-opacity:1"
       id="text3318">
      <path
         d="M 759.53334,1093.3012 H 764.45 v 15.4666 q 0,3.0334 -0.53333,4.6667 -0.71667,2.1333 -2.6,3.4333 -1.88333,1.2834 -4.96667,1.2834 -3.61666,0 -5.56666,-2.0167 -1.95,-2.0333 -1.96667,-5.95 l 4.65,-0.5333 q 0.0833,2.1 0.61667,2.9666 0.8,1.3167 2.43333,1.3167 1.65,0 2.33333,-0.9333 0.68334,-0.95 0.68334,-3.9167 z"
         style="font-style:normal;font-variant:normal;font-weight:bold;font-stretch:normal;font-size:34.13333511px;line-height:1.25;font-family:Arial;-inkscape-font-specification:'Arial Bold';stroke-width:1.06666672px"
         id="path5267"
         inkscape:connector-curvature="0" />
      <path
         d="m 768.71667,1105.6678 q 0,-3.7333 1.11667,-6.2666 0.83333,-1.8667 2.26667,-3.35 1.45,-1.4834 3.16666,-2.2 2.28334,-0.9667 5.26667,-0.9667 5.4,0 8.63333,3.35 3.25,3.35 3.25,9.3167 0,5.9166 -3.21666,9.2666 -3.21667,3.3334 -8.6,3.3334 -5.45,0 -8.66667,-3.3167 -3.21667,-3.3333 -3.21667,-9.1667 z m 5.08334,-0.1666 q 0,4.15 1.91666,6.3 1.91667,2.1333 4.86667,2.1333 2.95,0 4.83333,-2.1167 1.9,-2.1333 1.9,-6.3833 0,-4.2 -1.85,-6.2667 -1.83333,-2.0666 -4.88333,-2.0666 -3.05,0 -4.91667,2.1 -1.86666,2.0833 -1.86666,6.3 z"
         style="font-style:normal;font-variant:normal;font-weight:bold;font-stretch:normal;font-size:34.13333511px;line-height:1.25;font-family:Arial;-inkscape-font-specification:'Arial Bold';stroke-width:1.06666672px"
         id="path5269"
         inkscape:connector-curvature="0" />
      <path
         d="m 796.26667,1117.7345 v -24.4333 h 4.93334 v 9.6166 h 9.66666 v -9.6166 h 4.93334 v 24.4333 h -4.93334 v -10.6833 h -9.66666 v 10.6833 z"
         style="font-style:normal;font-variant:normal;font-weight:bold;font-stretch:normal;font-size:34.13333511px;line-height:1.25;font-family:Arial;-inkscape-font-specification:'Arial Bold';stroke-width:1.06666672px"
         id="path5271"
         inkscape:connector-curvature="0" />
      <path
         d="m 820.96668,1117.7345 v -24.4333 h 4.8 l 10,16.3166 v -16.3166 h 4.58333 v 24.4333 h -4.95 l -9.85,-15.9333 v 15.9333 z"
         style="font-style:normal;font-variant:normal;font-weight:bold;font-stretch:normal;font-size:34.13333511px;line-height:1.25;font-family:Arial;-inkscape-font-specification:'Arial Bold';stroke-width:1.06666672px"
         id="path5273"
         inkscape:connector-curvature="0" />
      <path
         d="m 855.03335,1093.3012 h 9.01666 q 3.05,0 4.65001,0.4666 2.15,0.6334 3.68333,2.25 1.53333,1.6167 2.33333,3.9667 0.8,2.3333 0.8,5.7667 0,3.0166 -0.75,5.2 -0.91666,2.6666 -2.61666,4.3166 -1.28334,1.25 -3.46667,1.95 -1.63334,0.5167 -4.36667,0.5167 h -9.28333 z m 4.93333,4.1333 v 16.1833 h 3.68333 q 2.06667,0 2.98334,-0.2333 1.2,-0.3 1.98333,-1.0167 0.8,-0.7166 1.3,-2.35 0.5,-1.65 0.5,-4.4833 0,-2.8333 -0.5,-4.35 -0.5,-1.5167 -1.4,-2.3667 -0.9,-0.85 -2.28333,-1.15 -1.03334,-0.2333 -4.05,-0.2333 z"
         style="font-style:normal;font-variant:normal;font-weight:bold;font-stretch:normal;font-size:34.13333511px;line-height:1.25;font-family:Arial;-inkscape-font-specification:'Arial Bold';stroke-width:1.06666672px"
         id="path5275"
         inkscape:connector-curvature="0" />
      <path
         d="m 878.71667,1105.6678 q 0,-3.7333 1.11667,-6.2666 0.83333,-1.8667 2.26666,-3.35 1.45,-1.4834 3.16667,-2.2 2.28333,-0.9667 5.26667,-0.9667 5.4,0 8.63333,3.35 3.25,3.35 3.25,9.3167 0,5.9166 -3.21666,9.2666 -3.21667,3.3334 -8.60001,3.3334 -5.45,0 -8.66666,-3.3167 -3.21667,-3.3333 -3.21667,-9.1667 z m 5.08333,-0.1666 q 0,4.15 1.91667,6.3 1.91667,2.1333 4.86667,2.1333 2.95,0 4.83333,-2.1167 1.9,-2.1333 1.9,-6.3833 0,-4.2 -1.85,-6.2667 -1.83333,-2.0666 -4.88333,-2.0666 -3.05,0 -4.91667,2.1 -1.86667,2.0833 -1.86667,6.3 z"
         style="font-style:normal;font-variant:normal;font-weight:bold;font-stretch:normal;font-size:34.13333511px;line-height:1.25;font-family:Arial;-inkscape-font-specification:'Arial Bold';stroke-width:1.06666672px"
         id="path5277"
         inkscape:connector-curvature="0" />
      <path
         d="m 906.25001,1117.7345 v -24.4333 h 18.11667 v 4.1333 h -13.18334 v 5.4167 h 12.26667 v 4.1166 h -12.26667 v 6.65 h 13.65001 v 4.1167 z"
         style="font-style:normal;font-variant:normal;font-weight:bold;font-stretch:normal;font-size:34.13333511px;line-height:1.25;font-family:Arial;-inkscape-font-specification:'Arial Bold';stroke-width:1.06666672px"
         id="path5279"
         inkscape:connector-curvature="0" />
    </g>
    <g
       aria-label="JANE DOE"
       style="font-style:normal;font-variant:normal;font-weight:bold;font-stretch:normal;font-size:12.80000019px;line-height:0%;font-family:Arial;-inkscape-font-specification:'Arial Bold';fill:#000000;fill-opacity:1;stroke:none;stroke-width:1.06666672px;stroke-linecap:butt;stroke-linejoin:miter;stroke-opacity:1"
       id="text3322">
      <path
         d="m 760.64454,1148.7185 h 4.91667 v 15.4667 q 0,3.0333 -0.53333,4.6667 -0.71667,2.1333 -2.6,3.4333 -1.88334,1.2833 -4.96667,1.2833 -3.61667,0 -5.56667,-2.0166 -1.95,-2.0334 -1.96666,-5.95 l 4.65,-0.5334 q 0.0833,2.1 0.61666,2.9667 0.8,1.3167 2.43334,1.3167 1.65,0 2.33333,-0.9334 0.68333,-0.95 0.68333,-3.9166 z"
         style="font-style:normal;font-variant:normal;font-weight:bold;font-stretch:normal;font-size:34.13333511px;line-height:1.25;font-family:Arial;-inkscape-font-specification:'Arial Bold';stroke-width:1.06666672px"
         id="path5252"
         inkscape:connector-curvature="0" />
      <path
         d="m 792.86121,1173.1519 h -5.36666 l -2.13334,-5.55 h -9.76666 l -2.01667,5.55 h -5.23333 l 9.51666,-24.4334 h 5.21667 z m -9.08333,-9.6667 -3.36667,-9.0667 -3.3,9.0667 z"
         style="font-style:normal;font-variant:normal;font-weight:bold;font-stretch:normal;font-size:34.13333511px;line-height:1.25;font-family:Arial;-inkscape-font-specification:'Arial Bold';stroke-width:1.06666672px"
         id="path5254"
         inkscape:connector-curvature="0" />
      <path
         d="m 795.54455,1173.1519 v -24.4334 h 4.8 l 10,16.3167 v -16.3167 h 4.58333 v 24.4334 h -4.95 l -9.85,-15.9334 v 15.9334 z"
         style="font-style:normal;font-variant:normal;font-weight:bold;font-stretch:normal;font-size:34.13333511px;line-height:1.25;font-family:Arial;-inkscape-font-specification:'Arial Bold';stroke-width:1.06666672px"
         id="path5256"
         inkscape:connector-curvature="0" />
      <path
         d="m 820.16121,1173.1519 v -24.4334 h 18.11667 v 4.1334 h -13.18333 v 5.4166 h 12.26666 v 4.1167 h -12.26666 v 6.65 h 13.65 v 4.1167 z"
         style="font-style:normal;font-variant:normal;font-weight:bold;font-stretch:normal;font-size:34.13333511px;line-height:1.25;font-family:Arial;-inkscape-font-specification:'Arial Bold';stroke-width:1.06666672px"
         id="path5258"
         inkscape:connector-curvature="0" />
      <path
         d="m 852.41122,1148.7185 h 9.01666 q 3.05,0 4.65,0.4667 2.15,0.6333 3.68334,2.25 1.53333,1.6167 2.33333,3.9667 0.8,2.3333 0.8,5.7666 0,3.0167 -0.75,5.2 -0.91667,2.6667 -2.61667,4.3167 -1.28333,1.25 -3.46666,1.95 -1.63334,0.5167 -4.36667,0.5167 h -9.28333 z m 4.93333,4.1334 v 16.1833 h 3.68333 q 2.06667,0 2.98334,-0.2333 1.2,-0.3 1.98333,-1.0167 0.8,-0.7167 1.3,-2.35 0.5,-1.65 0.5,-4.4833 0,-2.8334 -0.5,-4.35 -0.5,-1.5167 -1.4,-2.3667 -0.9,-0.85 -2.28333,-1.15 -1.03334,-0.2333 -4.05,-0.2333 z"
         style="font-style:normal;font-variant:normal;font-weight:bold;font-stretch:normal;font-size:34.13333511px;line-height:1.25;font-family:Arial;-inkscape-font-specification:'Arial Bold';stroke-width:1.06666672px"
         id="path5260"
         inkscape:connector-curvature="0" />
      <path
         d="m 876.09455,1161.0852 q 0,-3.7333 1.11667,-6.2667 0.83333,-1.8666 2.26667,-3.35 1.45,-1.4833 3.16667,-2.2 2.28333,-0.9666 5.26666,-0.9666 5.4,0 8.63334,3.35 3.25,3.35 3.25,9.3166 0,5.9167 -3.21667,9.2667 -3.21667,3.3333 -8.6,3.3333 -5.45,0 -8.66667,-3.3166 -3.21667,-3.3334 -3.21667,-9.1667 z m 5.08334,-0.1667 q 0,4.15 1.91667,6.3 1.91666,2.1334 4.86666,2.1334 2.95,0 4.83334,-2.1167 1.9,-2.1333 1.9,-6.3833 0,-4.2 -1.85,-6.2667 -1.83334,-2.0667 -4.88334,-2.0667 -3.05,0 -4.91666,2.1 -1.86667,2.0834 -1.86667,6.3 z"
         style="font-style:normal;font-variant:normal;font-weight:bold;font-stretch:normal;font-size:34.13333511px;line-height:1.25;font-family:Arial;-inkscape-font-specification:'Arial Bold';stroke-width:1.06666672px"
         id="path5262"
         inkscape:connector-curvature="0" />
      <path
         d="m 903.62788,1173.1519 v -24.4334 h 18.11667 v 4.1334 h -13.18334 v 5.4166 h 12.26667 v 4.1167 h -12.26667 v 6.65 h 13.65 v 4.1167 z"
         style="font-style:normal;font-variant:normal;font-weight:bold;font-stretch:normal;font-size:34.13333511px;line-height:1.25;font-family:Arial;-inkscape-font-specification:'Arial Bold';stroke-width:1.06666672px"
         id="path5264"
         inkscape:connector-curvature="0" />
    </g>
    <g
       aria-label="18.2.07"
       style="font-style:normal;font-variant:normal;font-weight:bold;font-stretch:normal;font-size:12.80000019px;line-height:0%;font-family:Arial;-inkscape-font-specification:'Arial Bold';fill:#000000;fill-opacity:1;stroke:none;stroke-width:1.06666672px;stroke-linecap:butt;stroke-linejoin:miter;stroke-opacity:1"
       id="text3326">
      <path
         d="m 633.78423,1265.5065 h -4.68334 v -17.65 q -2.56667,2.4 -6.05,3.55 v -4.25 q 1.83333,-0.6 3.98333,-2.2667 2.15,-1.6833 2.95,-3.9167 h 3.80001 z"
         style="font-style:normal;font-variant:normal;font-weight:bold;font-stretch:normal;font-size:34.13333511px;line-height:1.25;font-family:Arial;-inkscape-font-specification:'Arial Bold';stroke-width:1.06666672px"
         id="path5198"
         inkscape:connector-curvature="0" />
      <path
         d="m 644.81756,1252.3231 q -1.81667,-0.7666 -2.65,-2.1 -0.81667,-1.35 -0.81667,-2.95 0,-2.7333 1.9,-4.5166 1.91667,-1.7834 5.43334,-1.7834 3.48333,0 5.4,1.7834 1.93333,1.7833 1.93333,4.5166 0,1.7 -0.88333,3.0334 -0.88334,1.3166 -2.48334,2.0166 2.03334,0.8167 3.08334,2.3834 1.06666,1.5666 1.06666,3.6166 0,3.3834 -2.16666,5.5 -2.15,2.1167 -5.73334,2.1167 -3.33333,0 -5.55,-1.75 -2.61666,-2.0667 -2.61666,-5.6667 0,-1.9833 0.98333,-3.6333 0.98333,-1.6667 3.1,-2.5667 z m 0.96667,-4.7166 q 0,1.4 0.78333,2.1833 0.8,0.7833 2.11667,0.7833 1.33333,0 2.13333,-0.7833 0.8,-0.8 0.8,-2.2 0,-1.3167 -0.8,-2.1 -0.78333,-0.8 -2.08333,-0.8 -1.35,0 -2.15,0.8 -0.8,0.8 -0.8,2.1167 z m -0.43334,10.4666 q 0,1.9334 0.98334,3.0167 1,1.0833 2.48333,1.0833 1.45,0 2.4,-1.0333 0.95,-1.05 0.95,-3.0167 0,-1.7166 -0.96667,-2.75 -0.96666,-1.05 -2.45,-1.05 -1.71666,0 -2.56666,1.1834 -0.83334,1.1833 -0.83334,2.5666 z"
         style="font-style:normal;font-variant:normal;font-weight:bold;font-stretch:normal;font-size:34.13333511px;line-height:1.25;font-family:Arial;-inkscape-font-specification:'Arial Bold';stroke-width:1.06666672px"
         id="path5200"
         inkscape:connector-curvature="0" />
      <path
         d="m 660.8009,1265.5065 v -4.6834 h 4.68333 v 4.6834 z"
         style="font-style:normal;font-variant:normal;font-weight:bold;font-stretch:normal;font-size:34.13333511px;line-height:1.25;font-family:Arial;-inkscape-font-specification:'Arial Bold';stroke-width:1.06666672px"
         id="path5202"
         inkscape:connector-curvature="0" />
      <path
         d="m 685.08423,1261.1565 v 4.35 h -16.41667 q 0.26667,-2.4667 1.6,-4.6667 1.33334,-2.2167 5.26667,-5.8667 3.16667,-2.95 3.88333,-4 0.96667,-1.45 0.96667,-2.8666 0,-1.5667 -0.85,-2.4 -0.83333,-0.85 -2.31667,-0.85 -1.46666,0 -2.33333,0.8833 -0.86667,0.8833 -1,2.9333 l -4.66667,-0.4666 q 0.41667,-3.8667 2.61667,-5.55 2.2,-1.6834 5.5,-1.6834 3.61667,0 5.68333,1.95 2.06667,1.95 2.06667,4.85 0,1.65 -0.6,3.15 -0.58333,1.4834 -1.86667,3.1167 -0.85,1.0833 -3.06666,3.1167 -2.21667,2.0333 -2.81667,2.7 -0.58333,0.6666 -0.95,1.3 z"
         style="font-style:normal;font-variant:normal;font-weight:bold;font-stretch:normal;font-size:34.13333511px;line-height:1.25;font-family:Arial;-inkscape-font-specification:'Arial Bold';stroke-width:1.06666672px"
         id="path5204"
         inkscape:connector-curvature="0" />
      <path
         d="m 689.26757,1265.5065 v -4.6834 h 4.68333 v 4.6834 z"
         style="font-style:normal;font-variant:normal;font-weight:bold;font-stretch:normal;font-size:34.13333511px;line-height:1.25;font-family:Arial;-inkscape-font-specification:'Arial Bold';stroke-width:1.06666672px"
         id="path5206"
         inkscape:connector-curvature="0" />
      <path
         d="m 705.6509,1240.9731 q 3.55,0 5.55,2.5334 2.38333,3 2.38333,9.95 0,6.9333 -2.4,9.9666 -1.98333,2.5 -5.53333,2.5 -3.56667,0 -5.75,-2.7333 -2.18333,-2.75 -2.18333,-9.7833 0,-6.9 2.4,-9.9334 1.98333,-2.5 5.53333,-2.5 z m 0,3.8834 q -0.85,0 -1.51667,0.55 -0.66666,0.5333 -1.03333,1.9333 -0.48333,1.8167 -0.48333,6.1167 0,4.3 0.43333,5.9166 0.43333,1.6 1.08333,2.1334 0.66667,0.5333 1.51667,0.5333 0.85,0 1.51667,-0.5333 0.66666,-0.55 1.03333,-1.95 0.48333,-1.8 0.48333,-6.1 0,-4.3 -0.43333,-5.9 -0.43333,-1.6167 -1.1,-2.15 -0.65,-0.55 -1.5,-0.55 z"
         style="font-style:normal;font-variant:normal;font-weight:bold;font-stretch:normal;font-size:34.13333511px;line-height:1.25;font-family:Arial;-inkscape-font-specification:'Arial Bold';stroke-width:1.06666672px"
         id="path5208"
         inkscape:connector-curvature="0" />
      <path
         d="m 716.73423,1245.7565 v -4.35 h 16.01667 v 3.4 q -1.98333,1.95 -4.03333,5.6 -2.05,3.65 -3.13334,7.7666 -1.06666,4.1 -1.05,7.3334 h -4.51666 q 0.11666,-5.0667 2.08333,-10.3334 1.98333,-5.2666 5.28333,-9.4166 z"
         style="font-style:normal;font-variant:normal;font-weight:bold;font-stretch:normal;font-size:34.13333511px;line-height:1.25;font-family:Arial;-inkscape-font-specification:'Arial Bold';stroke-width:1.06666672px"
         id="path5210"
         inkscape:connector-curvature="0" />
    </g>
    <path
       inkscape:connector-curvature="0"
       id="path5373"
       d="m 856.16716,1238.0575 h 35.953"
       style="fill:none;stroke:#000000;stroke-width:1.56790733;stroke-linecap:butt;stroke-linejoin:miter;stroke-opacity:1" />
    <path
       sodipodi:nodetypes="cc"
       inkscape:connector-curvature="0"
       id="path5375"
       d="m 896.55988,1238.4057 78.08678,-24.7231"
       style="fill:none;stroke:#000000;stroke-width:1.56790733;stroke-linecap:butt;stroke-linejoin:miter;stroke-opacity:1" />
    <path
       style="fill:none;stroke:#000000;stroke-width:1.56790733;stroke-linecap:butt;stroke-linejoin:miter;stroke-opacity:1"
       d="m 1011.383,1243.3273 40.4146,-33.5872"
       id="path5371"
       inkscape:connector-curvature="0"
       sodipodi:nodetypes="cc" />
    <path
       style="fill:none;stroke:#000000;stroke-width:1.56790733;stroke-linecap:butt;stroke-linejoin:miter;stroke-opacity:1"
       d="m 972.72569,1239.6339 30.40671,-0.1195"
       id="path5377"
       inkscape:connector-curvature="0"
       sodipodi:nodetypes="cc" />
  </g>
</svg>
